<svg width="623" height="132" viewBox="0 0 623 132" fill="none" xmlns="http://www.w3.org/2000/svg">
<path d="M106.982 0.283867H145.254V132H106.982V102.335H98.9021L99.7526 123.2C82.7427 125.755 61.7637 127.458 45.746 127.458C12.2931 127.458 0.669678 115.961 0.669678 82.4645C0.669678 58.7613 2.08717 34.6323 5.63091 3.40645L46.7383 4.8258C44.4703 34.0645 43.9033 52.5161 43.9033 72.1032C43.9033 86.2968 46.1713 90.129 60.488 90.129C66.725 90.129 71.9697 89.9871 77.9232 89.5613V71.1097H106.982V52.6581H77.9232V21.4323H106.982V0.283867Z" fill="white"/>
<path d="M159.871 22.2839H257.536C258.103 21.0065 258.245 20.4387 258.245 19.729C258.245 17.7419 256.261 17.1742 248.323 17.1742C228.761 17.1742 190.347 17.7419 164.124 18.4516L162.706 1.84516C186.803 0.709677 219.689 0 241.235 0C289.997 0 302.188 2.55484 302.188 13.0581C302.188 15.6129 301.195 19.0194 299.778 22.2839H302.188V38.6065H206.223C205.94 39.3161 205.798 40.0258 205.798 40.5936C205.798 43.4323 207.499 43.8581 217.563 43.8581C243.078 43.8581 283.618 43.1484 303.605 42.1548L305.023 59.8968C281.067 61.3161 239.393 62.5936 219.406 62.5936C171.069 62.5936 161.997 59.0452 161.997 48.5419C161.997 44.9935 162.706 41.729 163.84 38.6065H159.871V22.2839ZM155.193 85.3032V66.1419H309.7V85.3032H155.193ZM161.289 132V89.5613H303.605V132H161.289ZM200.978 114.258H263.915V106.594H200.978V114.258Z" fill="white"/>
<path d="M420.99 0.283867H459.263V44.1419H469.185V79.6258H459.263V132H420.99V0.283867ZM316.096 82.4645C316.096 58.7613 317.513 34.6323 321.057 3.40645L362.164 4.8258C359.896 34.0645 359.329 52.5161 359.329 72.1032C359.329 86.2968 361.597 90.129 375.914 90.129C388.104 90.129 397.035 89.4194 413.761 87.5742L415.179 123.2C398.169 125.755 377.19 127.458 361.172 127.458C327.719 127.458 316.096 115.961 316.096 82.4645Z" fill="white"/>
<path d="M582.601 0.283867H623V132H582.601V0.283867ZM476.998 93.3936C526.61 87.8581 535.682 80.7613 535.682 54.7871C535.682 45.2774 531.005 40.4516 521.224 40.4516C513.286 40.4516 504.072 41.3032 482.668 43.8581L478.415 8.3742C499.961 4.11613 518.814 1.9871 533.839 1.9871C563.749 1.9871 576.081 16.0387 576.081 49.8194C576.081 104.606 547.022 128.877 481.25 128.877L476.998 93.3936Z" fill="white"/>
</svg>
