<svg width="160" height="140" viewBox="0 0 160 140" fill="none" xmlns="http://www.w3.org/2000/svg">
<g filter="url(#filter0_f_11830_3540)">
<path d="M61.2157 69.0241C62.1666 68.825 62.8247 69.8983 62.3988 70.7715C61.3453 72.9315 60.7539 75.3583 60.7539 77.9232C60.7541 86.9458 68.0682 94.26 77.0908 94.2601C79.3596 94.2601 81.52 93.7967 83.4834 92.9604C84.3772 92.5797 85.4154 93.2914 85.1677 94.2308C82.861 102.98 74.8957 109.431 65.4219 109.431C54.1434 109.431 45.0001 100.289 45 89.0101C45 79.1734 51.955 70.9628 61.2157 69.0241Z" fill="black" fill-opacity="0.3"/>
</g>
<mask id="path-2-inside-1_11830_3540" fill="white">
<path d="M74.4191 22.0118C75.3802 21.8694 76.025 22.9459 75.5356 23.7852C72.7523 28.5587 71.1572 34.1098 71.1572 40.0339C71.1573 57.8783 85.6232 72.3445 103.468 72.3445C108.801 72.3444 113.832 71.0504 118.266 68.7614C119.129 68.3157 120.171 69.0145 119.979 69.967C116.264 88.4361 99.9523 102.346 80.3887 102.346C58.0829 102.346 40.0001 84.2642 40 61.9588C40 41.6815 54.9439 24.8969 74.4191 22.0118Z"/>
</mask>
<g filter="url(#filter1_iiii_11830_3540)">
<path d="M74.4191 22.0118C75.3802 21.8694 76.025 22.9459 75.5356 23.7852C72.7523 28.5587 71.1572 34.1098 71.1572 40.0339C71.1573 57.8783 85.6232 72.3445 103.468 72.3445C108.801 72.3444 113.832 71.0504 118.266 68.7614C119.129 68.3157 120.171 69.0145 119.979 69.967C116.264 88.4361 99.9523 102.346 80.3887 102.346C58.0829 102.346 40.0001 84.2642 40 61.9588C40 41.6815 54.9439 24.8969 74.4191 22.0118Z" fill="url(#paint0_linear_11830_3540)" fill-opacity="0.8"/>
</g>
<path d="M71.1572 40.0339H70.5828V40.0339L71.1572 40.0339ZM103.468 72.3445V72.919H103.468L103.468 72.3445ZM80.3887 102.346V102.921H80.3887L80.3887 102.346ZM40 61.9588H39.4255V61.9588L40 61.9588ZM118.266 68.7614L118.529 69.2718L118.266 68.7614ZM119.979 69.967L119.416 69.8537L119.979 69.967ZM75.5356 23.7852L76.0319 24.0746L75.5356 23.7852ZM75.5356 23.7852L75.0393 23.4958C72.2063 28.3548 70.5828 34.0054 70.5828 40.0339H71.1572H71.7317C71.7317 34.2143 73.2984 28.7627 76.0319 24.0746L75.5356 23.7852ZM71.1572 40.0339L70.5828 40.0339C70.5828 58.1956 85.3059 72.919 103.468 72.919V72.3445V71.77C85.9404 71.77 71.7318 57.5611 71.7317 40.0339L71.1572 40.0339ZM103.468 72.3445L103.468 72.919C108.895 72.9189 114.016 71.6019 118.529 69.2718L118.266 68.7614L118.002 68.2509C113.648 70.4989 108.707 71.77 103.468 71.77L103.468 72.3445ZM119.979 69.967L119.416 69.8537C115.754 88.0599 99.6733 101.772 80.3887 101.772L80.3887 102.346L80.3887 102.921C100.231 102.921 116.774 88.8123 120.543 70.0803L119.979 69.967ZM80.3887 102.346V101.772C58.4002 101.772 40.5746 83.9469 40.5745 61.9587L40 61.9588L39.4255 61.9588C39.4257 84.5815 57.7657 102.921 80.3887 102.921V102.346ZM40 61.9588H40.5745C40.5745 41.9704 55.3056 25.424 74.5033 22.5801L74.4191 22.0118L74.3349 21.4435C54.5823 24.3697 39.4255 41.3925 39.4255 61.9588H40ZM118.266 68.7614L118.529 69.2718C118.758 69.1535 119.008 69.1859 119.192 69.3124C119.369 69.4353 119.462 69.6277 119.416 69.8537L119.979 69.967L120.543 70.0803C120.844 68.5841 119.228 67.6183 118.002 68.2509L118.266 68.7614ZM75.5356 23.7852L76.0319 24.0746C76.7266 22.883 75.8443 21.2199 74.3349 21.4435L74.4191 22.0118L74.5033 22.5801C74.7313 22.5463 74.9189 22.6485 75.0326 22.8324C75.1496 23.0218 75.1692 23.2731 75.0393 23.4958L75.5356 23.7852Z" fill="url(#paint1_linear_11830_3540)" fill-opacity="0.5" mask="url(#path-2-inside-1_11830_3540)"/>
<g filter="url(#filter2_iiii_11830_3540)">
<path d="M55.738 11.1973C55.8205 10.9342 56.1795 10.9342 56.262 11.1973L56.3092 11.348C56.3461 11.4657 56.4518 11.5453 56.5712 11.5453H56.724C56.9909 11.5453 57.1018 11.8993 56.8859 12.0618L56.7623 12.155C56.6657 12.2277 56.6253 12.3566 56.6622 12.4742L56.7094 12.6249C56.7919 12.888 56.5014 13.1068 56.2856 12.9442L56.1619 12.851C56.0654 12.7783 55.9346 12.7783 55.8381 12.851L55.7144 12.9442C55.4986 13.1068 55.2081 12.888 55.2906 12.6249L55.3378 12.4742C55.3747 12.3566 55.3343 12.2277 55.2377 12.155L55.1141 12.0618C54.8982 11.8993 55.0091 11.5453 55.276 11.5453H55.4288C55.5482 11.5453 55.6539 11.4657 55.6908 11.348L55.738 11.1973Z" fill="url(#paint2_linear_11830_3540)" fill-opacity="0.8"/>
</g>
<path d="M55.7979 11.2158C55.8621 11.0114 56.1379 11.0114 56.2021 11.2158L56.25 11.3672C56.2948 11.5094 56.4236 11.6074 56.5713 11.6074H56.7236C56.9254 11.6074 57.0202 11.8821 56.8486 12.0117L56.7246 12.1055C56.6065 12.1945 56.558 12.3511 56.6025 12.4932L56.6494 12.6436C56.6821 12.7477 56.6413 12.8418 56.5713 12.8945C56.5017 12.9467 56.4062 12.9569 56.3232 12.8945L56.1992 12.8008C56.0806 12.7116 55.9194 12.7116 55.8008 12.8008L55.6768 12.8945C55.5938 12.9569 55.4983 12.9467 55.4287 12.8945C55.3587 12.8418 55.3179 12.7477 55.3506 12.6436L55.3975 12.4932C55.442 12.3511 55.3935 12.1945 55.2754 12.1055L55.1514 12.0117C54.9798 11.8821 55.0746 11.6074 55.2764 11.6074H55.4287C55.5764 11.6074 55.7052 11.5094 55.75 11.3672L55.7979 11.2158Z" stroke="url(#paint3_linear_11830_3540)" stroke-opacity="0.5" stroke-width="0.125"/>
<g filter="url(#filter3_iiii_11830_3540)">
<path d="M31.4761 30.3946C31.641 29.8685 32.359 29.8685 32.5239 30.3946L32.6184 30.696C32.6921 30.9313 32.9037 31.0906 33.1423 31.0906H33.4481C33.9817 31.0906 34.2036 31.7985 33.7719 32.1237L33.5245 32.31C33.3314 32.4554 33.2506 32.7132 33.3244 32.9484L33.4189 33.2499C33.5838 33.776 33.0029 34.2135 32.5712 33.8883L32.3238 33.702C32.1307 33.5566 31.8693 33.5566 31.6762 33.702L31.4288 33.8883C30.9971 34.2135 30.4162 33.776 30.5811 33.2499L30.6756 32.9484C30.7494 32.7132 30.6686 32.4554 30.4755 32.31L30.2281 32.1237C29.7964 31.7985 30.0183 31.0906 30.5519 31.0906H30.8577C31.0963 31.0906 31.3079 30.9313 31.3816 30.696L31.4761 30.3946Z" fill="url(#paint4_linear_11830_3540)" fill-opacity="0.8"/>
</g>
<path d="M31.5957 30.4316C31.7242 30.0229 32.2758 30.0229 32.4043 30.4316L32.499 30.7334C32.5884 31.0184 32.8468 31.2158 33.1426 31.2158H33.4482C33.8518 31.216 34.0401 31.7645 33.6963 32.0234L33.4492 32.21C33.2129 32.388 33.1162 32.7011 33.2051 32.9854L33.2998 33.2871C33.3651 33.4954 33.2834 33.6826 33.1436 33.7881C33.0042 33.893 32.8127 33.9133 32.6465 33.7881L32.3994 33.6025C32.1618 33.4236 31.8382 33.4236 31.6006 33.6025L31.3535 33.7881C31.1873 33.9133 30.9958 33.893 30.8564 33.7881C30.7166 33.6826 30.6349 33.4954 30.7002 33.2871L30.7949 32.9854C30.8838 32.7011 30.7871 32.388 30.5508 32.21L30.3037 32.0234C29.9599 31.7645 30.1482 31.216 30.5518 31.2158H30.8574C31.1532 31.2158 31.4116 31.0184 31.501 30.7334L31.5957 30.4316Z" stroke="url(#paint5_linear_11830_3540)" stroke-opacity="0.5" stroke-width="0.25"/>
<g filter="url(#filter4_iiii_11830_3540)">
<path d="M97.6902 40.9865C98.1025 39.6712 99.8975 39.6712 100.31 40.9865L100.546 41.7401C100.73 42.3283 101.259 42.7266 101.856 42.7266H102.62C103.954 42.7266 104.509 44.4963 103.43 45.3092L102.811 45.775C102.329 46.1385 102.127 46.7829 102.311 47.3711L102.547 48.1247C102.959 49.44 101.507 50.5338 100.428 49.7209L99.8095 49.2551C99.3268 48.8916 98.6732 48.8916 98.1905 49.2551L97.5721 49.7209C96.4928 50.5338 95.0406 49.44 95.4528 48.1247L95.689 47.3711C95.8734 46.7829 95.6714 46.1385 95.1887 45.775L94.5703 45.3092C93.491 44.4963 94.0457 42.7266 95.3798 42.7266H96.1442C96.7409 42.7266 97.2696 42.3283 97.454 41.7401L97.6902 40.9865Z" fill="url(#paint6_linear_11830_3540)"/>
</g>
<path d="M97.9287 41.0615C98.2677 39.9799 99.7323 39.9799 100.071 41.0615L100.308 41.8145C100.523 42.5021 101.145 42.9764 101.855 42.9766H102.62C103.694 42.9766 104.183 44.4288 103.279 45.1094L102.661 45.5752C102.092 46.0041 101.857 46.7599 102.072 47.4463L102.309 48.1992C102.48 48.7474 102.266 49.2433 101.896 49.5215C101.529 49.7985 101.018 49.8531 100.578 49.5215L99.96 49.0557C99.3882 48.6251 98.6118 48.6251 98.04 49.0557L97.4219 49.5215C96.9815 49.8531 96.4715 49.7985 96.1035 49.5215C95.7342 49.2433 95.5196 48.7474 95.6914 48.1992L95.9277 47.4463C96.1429 46.7599 95.9083 46.0041 95.3389 45.5752L94.7207 45.1094C93.8172 44.4288 94.3057 42.9766 95.3799 42.9766H96.1445C96.8552 42.9764 97.4769 42.5021 97.6924 41.8145L97.9287 41.0615Z" stroke="url(#paint7_linear_11830_3540)" stroke-opacity="0.5" stroke-width="0.5"/>
<g filter="url(#filter5_iiii_11830_3540)">
<path d="M115.738 49.1973C115.82 48.9342 116.18 48.9342 116.262 49.1973L116.309 49.348C116.346 49.4657 116.452 49.5453 116.571 49.5453H116.724C116.991 49.5453 117.102 49.8993 116.886 50.0618L116.762 50.155C116.666 50.2277 116.625 50.3566 116.662 50.4742L116.709 50.6249C116.792 50.888 116.501 51.1068 116.286 50.9442L116.162 50.851C116.065 50.7783 115.935 50.7783 115.838 50.851L115.714 50.9442C115.499 51.1068 115.208 50.888 115.291 50.6249L115.338 50.4742C115.375 50.3566 115.334 50.2277 115.238 50.155L115.114 50.0618C114.898 49.8993 115.009 49.5453 115.276 49.5453H115.429C115.548 49.5453 115.654 49.4657 115.691 49.348L115.738 49.1973Z" fill="url(#paint8_linear_11830_3540)" fill-opacity="0.8"/>
</g>
<path d="M115.798 49.2158C115.862 49.0114 116.138 49.0114 116.202 49.2158L116.25 49.3672C116.295 49.5094 116.424 49.6074 116.571 49.6074H116.724C116.925 49.6074 117.02 49.8821 116.849 50.0117L116.725 50.1055C116.607 50.1945 116.558 50.3511 116.603 50.4932L116.649 50.6436C116.682 50.7477 116.641 50.8418 116.571 50.8945C116.502 50.9467 116.406 50.9569 116.323 50.8945L116.199 50.8008C116.081 50.7116 115.919 50.7116 115.801 50.8008L115.677 50.8945C115.594 50.9569 115.498 50.9467 115.429 50.8945C115.359 50.8418 115.318 50.7477 115.351 50.6436L115.397 50.4932C115.442 50.3511 115.393 50.1945 115.275 50.1055L115.151 50.0117C114.98 49.8821 115.075 49.6074 115.276 49.6074H115.429C115.576 49.6074 115.705 49.5094 115.75 49.3672L115.798 49.2158Z" stroke="url(#paint9_linear_11830_3540)" stroke-opacity="0.5" stroke-width="0.125"/>
<g filter="url(#filter6_iiii_11830_3540)">
<path d="M18.6902 99.9865C19.1025 98.6712 20.8975 98.6712 21.3098 99.9865L21.546 100.74C21.7304 101.328 22.2591 101.727 22.8558 101.727H23.6202C24.9543 101.727 25.509 103.496 24.4297 104.309L23.8113 104.775C23.3286 105.138 23.1266 105.783 23.311 106.371L23.5472 107.125C23.9594 108.44 22.5072 109.534 21.4279 108.721L20.8095 108.255C20.3268 107.892 19.6732 107.892 19.1905 108.255L18.5721 108.721C17.4928 109.534 16.0406 108.44 16.4528 107.125L16.689 106.371C16.8734 105.783 16.6714 105.138 16.1887 104.775L15.5703 104.309C14.491 103.496 15.0457 101.727 16.3798 101.727H17.1442C17.7409 101.727 18.2696 101.328 18.454 100.74L18.6902 99.9865Z" fill="url(#paint10_linear_11830_3540)"/>
</g>
<path d="M18.9287 100.062C19.2677 98.9799 20.7323 98.9799 21.0713 100.062L21.3076 100.814C21.5231 101.502 22.1448 101.976 22.8555 101.977H23.6201C24.6943 101.977 25.1828 103.429 24.2793 104.109L23.6611 104.575C23.0917 105.004 22.8571 105.76 23.0723 106.446L23.3086 107.199C23.4804 107.747 23.2658 108.243 22.8965 108.521C22.5285 108.799 22.0185 108.853 21.5781 108.521L20.96 108.056C20.3882 107.625 19.6118 107.625 19.04 108.056L18.4219 108.521C17.9815 108.853 17.4715 108.799 17.1035 108.521C16.7342 108.243 16.5196 107.747 16.6914 107.199L16.9277 106.446C17.1429 105.76 16.9083 105.004 16.3389 104.575L15.7207 104.109C14.8172 103.429 15.3057 101.977 16.3799 101.977H17.1445C17.8552 101.976 18.4769 101.502 18.6924 100.814L18.9287 100.062Z" stroke="url(#paint11_linear_11830_3540)" stroke-opacity="0.5" stroke-width="0.5"/>
<g filter="url(#filter7_iiii_11830_3540)">
<path d="M28.738 97.1973C28.8205 96.9342 29.1795 96.9342 29.262 97.1973L29.3092 97.348C29.3461 97.4657 29.4518 97.5453 29.5712 97.5453H29.724C29.9909 97.5453 30.1018 97.8993 29.8859 98.0618L29.7623 98.155C29.6657 98.2277 29.6253 98.3566 29.6622 98.4742L29.7094 98.6249C29.7919 98.888 29.5014 99.1068 29.2856 98.9442L29.1619 98.851C29.0654 98.7783 28.9346 98.7783 28.8381 98.851L28.7144 98.9442C28.4986 99.1068 28.2081 98.888 28.2906 98.6249L28.3378 98.4742C28.3747 98.3566 28.3343 98.2277 28.2377 98.155L28.1141 98.0618C27.8982 97.8993 28.0091 97.5453 28.276 97.5453H28.4288C28.5482 97.5453 28.6539 97.4657 28.6908 97.348L28.738 97.1973Z" fill="url(#paint12_linear_11830_3540)" fill-opacity="0.8"/>
</g>
<path d="M28.7979 97.2158C28.8621 97.0114 29.1379 97.0114 29.2021 97.2158L29.25 97.3672C29.2948 97.5094 29.4236 97.6074 29.5713 97.6074H29.7236C29.9254 97.6074 30.0202 97.8821 29.8486 98.0117L29.7246 98.1055C29.6065 98.1945 29.558 98.3511 29.6025 98.4932L29.6494 98.6436C29.6821 98.7477 29.6413 98.8418 29.5713 98.8945C29.5017 98.9467 29.4062 98.9569 29.3232 98.8945L29.1992 98.8008C29.0806 98.7116 28.9194 98.7116 28.8008 98.8008L28.6768 98.8945C28.5938 98.9569 28.4983 98.9467 28.4287 98.8945C28.3587 98.8418 28.3179 98.7477 28.3506 98.6436L28.3975 98.4932C28.442 98.3511 28.3935 98.1945 28.2754 98.1055L28.1514 98.0117C27.9798 97.8821 28.0746 97.6074 28.2764 97.6074H28.4287C28.5764 97.6074 28.7052 97.5094 28.75 97.3672L28.7979 97.2158Z" stroke="url(#paint13_linear_11830_3540)" stroke-opacity="0.5" stroke-width="0.125"/>
<g filter="url(#filter8_iiii_11830_3540)">
<path d="M132.214 95.5919C132.461 94.8027 133.539 94.8027 133.786 95.5919L133.928 96.044C134.038 96.397 134.355 96.6359 134.713 96.6359H135.172C135.973 96.6359 136.305 97.6978 135.658 98.1855L135.287 98.465C134.997 98.6831 134.876 99.0697 134.987 99.4227L135.128 99.8748C135.376 100.664 134.504 101.32 133.857 100.833L133.486 100.553C133.196 100.335 132.804 100.335 132.514 100.553L132.143 100.833C131.496 101.32 130.624 100.664 130.872 99.8748L131.013 99.4227C131.124 99.0697 131.003 98.6831 130.713 98.465L130.342 98.1855C129.695 97.6978 130.027 96.6359 130.828 96.6359H131.287C131.645 96.6359 131.962 96.397 132.072 96.044L132.214 95.5919Z" fill="url(#paint14_linear_11830_3540)" fill-opacity="0.8"/>
</g>
<path d="M132.333 95.6289C132.544 94.9568 133.456 94.9568 133.667 95.6289L133.809 96.0811C133.935 96.4837 134.299 96.7607 134.714 96.7607H135.172C135.842 96.7607 136.143 97.6643 135.583 98.0859L135.212 98.3652C134.879 98.616 134.741 99.058 134.867 99.46L135.009 99.9121C135.115 100.252 134.982 100.56 134.753 100.732C134.524 100.905 134.206 100.939 133.932 100.732L133.561 100.453C133.227 100.202 132.773 100.202 132.439 100.453L132.068 100.732C131.794 100.939 131.476 100.905 131.247 100.732C131.018 100.56 130.885 100.252 130.991 99.9121L131.133 99.46C131.259 99.058 131.121 98.616 130.788 98.3652L130.417 98.0859C129.857 97.6643 130.158 96.7607 130.828 96.7607H131.286C131.701 96.7607 132.065 96.4837 132.191 96.0811L132.333 95.6289Z" stroke="url(#paint15_linear_11830_3540)" stroke-opacity="0.5" stroke-width="0.25"/>
<defs>
<filter id="filter0_f_11830_3540" x="15" y="39" width="100.205" height="100.431" filterUnits="userSpaceOnUse" color-interpolation-filters="sRGB">
<feFlood flood-opacity="0" result="BackgroundImageFix"/>
<feBlend mode="normal" in="SourceGraphic" in2="BackgroundImageFix" result="shape"/>
<feGaussianBlur stdDeviation="15" result="effect1_foregroundBlur_11830_3540"/>
</filter>
<filter id="filter1_iiii_11830_3540" x="38.4312" y="21.2146" width="82.987" height="82.7008" filterUnits="userSpaceOnUse" color-interpolation-filters="sRGB">
<feFlood flood-opacity="0" result="BackgroundImageFix"/>
<feBlend mode="normal" in="SourceGraphic" in2="BackgroundImageFix" result="shape"/>
<feColorMatrix in="SourceAlpha" type="matrix" values="0 0 0 0 0 0 0 0 0 0 0 0 0 0 0 0 0 0 127 0" result="hardAlpha"/>
<feOffset dx="1.56878" dy="0.784392"/>
<feGaussianBlur stdDeviation="0.708132"/>
<feComposite in2="hardAlpha" operator="arithmetic" k2="-1" k3="1"/>
<feColorMatrix type="matrix" values="0 0 0 0 0.225962 0 0 0 0 0.189791 0 0 0 0 0.0286653 0 0 0 0.4 0"/>
<feBlend mode="normal" in2="shape" result="effect1_innerShadow_11830_3540"/>
<feColorMatrix in="SourceAlpha" type="matrix" values="0 0 0 0 0 0 0 0 0 0 0 0 0 0 0 0 0 0 127 0" result="hardAlpha"/>
<feOffset dx="-1.17659" dy="-0.784392"/>
<feGaussianBlur stdDeviation="0.635358"/>
<feComposite in2="hardAlpha" operator="arithmetic" k2="-1" k3="1"/>
<feColorMatrix type="matrix" values="0 0 0 0 1 0 0 0 0 0.827451 0 0 0 0 0.196078 0 0 0 0.4 0"/>
<feBlend mode="normal" in2="effect1_innerShadow_11830_3540" result="effect2_innerShadow_11830_3540"/>
<feColorMatrix in="SourceAlpha" type="matrix" values="0 0 0 0 0 0 0 0 0 0 0 0 0 0 0 0 0 0 127 0" result="hardAlpha"/>
<feOffset dx="-0.784392" dy="1.56878"/>
<feGaussianBlur stdDeviation="0.817075"/>
<feComposite in2="hardAlpha" operator="arithmetic" k2="-1" k3="1"/>
<feColorMatrix type="matrix" values="0 0 0 0 1 0 0 0 0 1 0 0 0 0 1 0 0 0 0.3 0"/>
<feBlend mode="normal" in2="effect2_innerShadow_11830_3540" result="effect3_innerShadow_11830_3540"/>
<feColorMatrix in="SourceAlpha" type="matrix" values="0 0 0 0 0 0 0 0 0 0 0 0 0 0 0 0 0 0 127 0" result="hardAlpha"/>
<feOffset dx="-1.56878"/>
<feGaussianBlur stdDeviation="0.784392"/>
<feComposite in2="hardAlpha" operator="arithmetic" k2="-1" k3="1"/>
<feColorMatrix type="matrix" values="0 0 0 0 1 0 0 0 0 1 0 0 0 0 1 0 0 0 0.2 0"/>
<feBlend mode="normal" in2="effect3_innerShadow_11830_3540" result="effect4_innerShadow_11830_3540"/>
</filter>
<filter id="filter2_iiii_11830_3540" x="54.8361" y="10.9181" width="2.31177" height="2.24578" filterUnits="userSpaceOnUse" color-interpolation-filters="sRGB">
<feFlood flood-opacity="0" result="BackgroundImageFix"/>
<feBlend mode="normal" in="SourceGraphic" in2="BackgroundImageFix" result="shape"/>
<feColorMatrix in="SourceAlpha" type="matrix" values="0 0 0 0 0 0 0 0 0 0 0 0 0 0 0 0 0 0 127 0" result="hardAlpha"/>
<feOffset dx="0.163851" dy="0.0819253"/>
<feGaussianBlur stdDeviation="0.0739603"/>
<feComposite in2="hardAlpha" operator="arithmetic" k2="-1" k3="1"/>
<feColorMatrix type="matrix" values="0 0 0 0 0.225962 0 0 0 0 0.189791 0 0 0 0 0.0286653 0 0 0 0.4 0"/>
<feBlend mode="normal" in2="shape" result="effect1_innerShadow_11830_3540"/>
<feColorMatrix in="SourceAlpha" type="matrix" values="0 0 0 0 0 0 0 0 0 0 0 0 0 0 0 0 0 0 127 0" result="hardAlpha"/>
<feOffset dx="-0.122888" dy="-0.0819253"/>
<feGaussianBlur stdDeviation="0.0663595"/>
<feComposite in2="hardAlpha" operator="arithmetic" k2="-1" k3="1"/>
<feColorMatrix type="matrix" values="0 0 0 0 1 0 0 0 0 0.827451 0 0 0 0 0.196078 0 0 0 0.4 0"/>
<feBlend mode="normal" in2="effect1_innerShadow_11830_3540" result="effect2_innerShadow_11830_3540"/>
<feColorMatrix in="SourceAlpha" type="matrix" values="0 0 0 0 0 0 0 0 0 0 0 0 0 0 0 0 0 0 127 0" result="hardAlpha"/>
<feOffset dx="-0.0819253" dy="0.163851"/>
<feGaussianBlur stdDeviation="0.0853388"/>
<feComposite in2="hardAlpha" operator="arithmetic" k2="-1" k3="1"/>
<feColorMatrix type="matrix" values="0 0 0 0 1 0 0 0 0 1 0 0 0 0 1 0 0 0 0.3 0"/>
<feBlend mode="normal" in2="effect2_innerShadow_11830_3540" result="effect3_innerShadow_11830_3540"/>
<feColorMatrix in="SourceAlpha" type="matrix" values="0 0 0 0 0 0 0 0 0 0 0 0 0 0 0 0 0 0 127 0" result="hardAlpha"/>
<feOffset dx="-0.163851"/>
<feGaussianBlur stdDeviation="0.0819253"/>
<feComposite in2="hardAlpha" operator="arithmetic" k2="-1" k3="1"/>
<feColorMatrix type="matrix" values="0 0 0 0 1 0 0 0 0 1 0 0 0 0 1 0 0 0 0.2 0"/>
<feBlend mode="normal" in2="effect3_innerShadow_11830_3540" result="effect4_innerShadow_11830_3540"/>
</filter>
<filter id="filter3_iiii_11830_3540" x="29.6723" y="29.8361" width="4.62354" height="4.49155" filterUnits="userSpaceOnUse" color-interpolation-filters="sRGB">
<feFlood flood-opacity="0" result="BackgroundImageFix"/>
<feBlend mode="normal" in="SourceGraphic" in2="BackgroundImageFix" result="shape"/>
<feColorMatrix in="SourceAlpha" type="matrix" values="0 0 0 0 0 0 0 0 0 0 0 0 0 0 0 0 0 0 127 0" result="hardAlpha"/>
<feOffset dx="0.327701" dy="0.163851"/>
<feGaussianBlur stdDeviation="0.147921"/>
<feComposite in2="hardAlpha" operator="arithmetic" k2="-1" k3="1"/>
<feColorMatrix type="matrix" values="0 0 0 0 0.225962 0 0 0 0 0.189791 0 0 0 0 0.0286653 0 0 0 0.4 0"/>
<feBlend mode="normal" in2="shape" result="effect1_innerShadow_11830_3540"/>
<feColorMatrix in="SourceAlpha" type="matrix" values="0 0 0 0 0 0 0 0 0 0 0 0 0 0 0 0 0 0 127 0" result="hardAlpha"/>
<feOffset dx="-0.245776" dy="-0.163851"/>
<feGaussianBlur stdDeviation="0.132719"/>
<feComposite in2="hardAlpha" operator="arithmetic" k2="-1" k3="1"/>
<feColorMatrix type="matrix" values="0 0 0 0 1 0 0 0 0 0.827451 0 0 0 0 0.196078 0 0 0 0.4 0"/>
<feBlend mode="normal" in2="effect1_innerShadow_11830_3540" result="effect2_innerShadow_11830_3540"/>
<feColorMatrix in="SourceAlpha" type="matrix" values="0 0 0 0 0 0 0 0 0 0 0 0 0 0 0 0 0 0 127 0" result="hardAlpha"/>
<feOffset dx="-0.163851" dy="0.327701"/>
<feGaussianBlur stdDeviation="0.170678"/>
<feComposite in2="hardAlpha" operator="arithmetic" k2="-1" k3="1"/>
<feColorMatrix type="matrix" values="0 0 0 0 1 0 0 0 0 1 0 0 0 0 1 0 0 0 0.3 0"/>
<feBlend mode="normal" in2="effect2_innerShadow_11830_3540" result="effect3_innerShadow_11830_3540"/>
<feColorMatrix in="SourceAlpha" type="matrix" values="0 0 0 0 0 0 0 0 0 0 0 0 0 0 0 0 0 0 127 0" result="hardAlpha"/>
<feOffset dx="-0.327701"/>
<feGaussianBlur stdDeviation="0.163851"/>
<feComposite in2="hardAlpha" operator="arithmetic" k2="-1" k3="1"/>
<feColorMatrix type="matrix" values="0 0 0 0 1 0 0 0 0 1 0 0 0 0 1 0 0 0 0.2 0"/>
<feBlend mode="normal" in2="effect3_innerShadow_11830_3540" result="effect4_innerShadow_11830_3540"/>
</filter>
<filter id="filter4_iiii_11830_3540" x="93.3446" y="39.6723" width="11.2471" height="10.9831" filterUnits="userSpaceOnUse" color-interpolation-filters="sRGB">
<feFlood flood-opacity="0" result="BackgroundImageFix"/>
<feBlend mode="normal" in="SourceGraphic" in2="BackgroundImageFix" result="shape"/>
<feColorMatrix in="SourceAlpha" type="matrix" values="0 0 0 0 0 0 0 0 0 0 0 0 0 0 0 0 0 0 127 0" result="hardAlpha"/>
<feOffset dx="0.655402" dy="0.327701"/>
<feGaussianBlur stdDeviation="0.295841"/>
<feComposite in2="hardAlpha" operator="arithmetic" k2="-1" k3="1"/>
<feColorMatrix type="matrix" values="0 0 0 0 0.225962 0 0 0 0 0.189791 0 0 0 0 0.0286653 0 0 0 0.4 0"/>
<feBlend mode="normal" in2="shape" result="effect1_innerShadow_11830_3540"/>
<feColorMatrix in="SourceAlpha" type="matrix" values="0 0 0 0 0 0 0 0 0 0 0 0 0 0 0 0 0 0 127 0" result="hardAlpha"/>
<feOffset dx="-0.491551" dy="-0.327701"/>
<feGaussianBlur stdDeviation="0.265438"/>
<feComposite in2="hardAlpha" operator="arithmetic" k2="-1" k3="1"/>
<feColorMatrix type="matrix" values="0 0 0 0 1 0 0 0 0 0.827451 0 0 0 0 0.196078 0 0 0 0.4 0"/>
<feBlend mode="normal" in2="effect1_innerShadow_11830_3540" result="effect2_innerShadow_11830_3540"/>
<feColorMatrix in="SourceAlpha" type="matrix" values="0 0 0 0 0 0 0 0 0 0 0 0 0 0 0 0 0 0 127 0" result="hardAlpha"/>
<feOffset dx="-0.327701" dy="0.655402"/>
<feGaussianBlur stdDeviation="0.341355"/>
<feComposite in2="hardAlpha" operator="arithmetic" k2="-1" k3="1"/>
<feColorMatrix type="matrix" values="0 0 0 0 1 0 0 0 0 1 0 0 0 0 1 0 0 0 0.3 0"/>
<feBlend mode="normal" in2="effect2_innerShadow_11830_3540" result="effect3_innerShadow_11830_3540"/>
<feColorMatrix in="SourceAlpha" type="matrix" values="0 0 0 0 0 0 0 0 0 0 0 0 0 0 0 0 0 0 127 0" result="hardAlpha"/>
<feOffset dx="-0.655402"/>
<feGaussianBlur stdDeviation="0.327701"/>
<feComposite in2="hardAlpha" operator="arithmetic" k2="-1" k3="1"/>
<feColorMatrix type="matrix" values="0 0 0 0 1 0 0 0 0 1 0 0 0 0 1 0 0 0 0.2 0"/>
<feBlend mode="normal" in2="effect3_innerShadow_11830_3540" result="effect4_innerShadow_11830_3540"/>
</filter>
<filter id="filter5_iiii_11830_3540" x="114.836" y="48.9181" width="2.31177" height="2.24578" filterUnits="userSpaceOnUse" color-interpolation-filters="sRGB">
<feFlood flood-opacity="0" result="BackgroundImageFix"/>
<feBlend mode="normal" in="SourceGraphic" in2="BackgroundImageFix" result="shape"/>
<feColorMatrix in="SourceAlpha" type="matrix" values="0 0 0 0 0 0 0 0 0 0 0 0 0 0 0 0 0 0 127 0" result="hardAlpha"/>
<feOffset dx="0.163851" dy="0.0819253"/>
<feGaussianBlur stdDeviation="0.0739603"/>
<feComposite in2="hardAlpha" operator="arithmetic" k2="-1" k3="1"/>
<feColorMatrix type="matrix" values="0 0 0 0 0.225962 0 0 0 0 0.189791 0 0 0 0 0.0286653 0 0 0 0.4 0"/>
<feBlend mode="normal" in2="shape" result="effect1_innerShadow_11830_3540"/>
<feColorMatrix in="SourceAlpha" type="matrix" values="0 0 0 0 0 0 0 0 0 0 0 0 0 0 0 0 0 0 127 0" result="hardAlpha"/>
<feOffset dx="-0.122888" dy="-0.0819253"/>
<feGaussianBlur stdDeviation="0.0663595"/>
<feComposite in2="hardAlpha" operator="arithmetic" k2="-1" k3="1"/>
<feColorMatrix type="matrix" values="0 0 0 0 1 0 0 0 0 0.827451 0 0 0 0 0.196078 0 0 0 0.4 0"/>
<feBlend mode="normal" in2="effect1_innerShadow_11830_3540" result="effect2_innerShadow_11830_3540"/>
<feColorMatrix in="SourceAlpha" type="matrix" values="0 0 0 0 0 0 0 0 0 0 0 0 0 0 0 0 0 0 127 0" result="hardAlpha"/>
<feOffset dx="-0.0819253" dy="0.163851"/>
<feGaussianBlur stdDeviation="0.0853388"/>
<feComposite in2="hardAlpha" operator="arithmetic" k2="-1" k3="1"/>
<feColorMatrix type="matrix" values="0 0 0 0 1 0 0 0 0 1 0 0 0 0 1 0 0 0 0.3 0"/>
<feBlend mode="normal" in2="effect2_innerShadow_11830_3540" result="effect3_innerShadow_11830_3540"/>
<feColorMatrix in="SourceAlpha" type="matrix" values="0 0 0 0 0 0 0 0 0 0 0 0 0 0 0 0 0 0 127 0" result="hardAlpha"/>
<feOffset dx="-0.163851"/>
<feGaussianBlur stdDeviation="0.0819253"/>
<feComposite in2="hardAlpha" operator="arithmetic" k2="-1" k3="1"/>
<feColorMatrix type="matrix" values="0 0 0 0 1 0 0 0 0 1 0 0 0 0 1 0 0 0 0.2 0"/>
<feBlend mode="normal" in2="effect3_innerShadow_11830_3540" result="effect4_innerShadow_11830_3540"/>
</filter>
<filter id="filter6_iiii_11830_3540" x="14.3446" y="98.6723" width="11.2471" height="10.9831" filterUnits="userSpaceOnUse" color-interpolation-filters="sRGB">
<feFlood flood-opacity="0" result="BackgroundImageFix"/>
<feBlend mode="normal" in="SourceGraphic" in2="BackgroundImageFix" result="shape"/>
<feColorMatrix in="SourceAlpha" type="matrix" values="0 0 0 0 0 0 0 0 0 0 0 0 0 0 0 0 0 0 127 0" result="hardAlpha"/>
<feOffset dx="0.655402" dy="0.327701"/>
<feGaussianBlur stdDeviation="0.295841"/>
<feComposite in2="hardAlpha" operator="arithmetic" k2="-1" k3="1"/>
<feColorMatrix type="matrix" values="0 0 0 0 0.225962 0 0 0 0 0.189791 0 0 0 0 0.0286653 0 0 0 0.4 0"/>
<feBlend mode="normal" in2="shape" result="effect1_innerShadow_11830_3540"/>
<feColorMatrix in="SourceAlpha" type="matrix" values="0 0 0 0 0 0 0 0 0 0 0 0 0 0 0 0 0 0 127 0" result="hardAlpha"/>
<feOffset dx="-0.491551" dy="-0.327701"/>
<feGaussianBlur stdDeviation="0.265438"/>
<feComposite in2="hardAlpha" operator="arithmetic" k2="-1" k3="1"/>
<feColorMatrix type="matrix" values="0 0 0 0 1 0 0 0 0 0.827451 0 0 0 0 0.196078 0 0 0 0.4 0"/>
<feBlend mode="normal" in2="effect1_innerShadow_11830_3540" result="effect2_innerShadow_11830_3540"/>
<feColorMatrix in="SourceAlpha" type="matrix" values="0 0 0 0 0 0 0 0 0 0 0 0 0 0 0 0 0 0 127 0" result="hardAlpha"/>
<feOffset dx="-0.327701" dy="0.655402"/>
<feGaussianBlur stdDeviation="0.341355"/>
<feComposite in2="hardAlpha" operator="arithmetic" k2="-1" k3="1"/>
<feColorMatrix type="matrix" values="0 0 0 0 1 0 0 0 0 1 0 0 0 0 1 0 0 0 0.3 0"/>
<feBlend mode="normal" in2="effect2_innerShadow_11830_3540" result="effect3_innerShadow_11830_3540"/>
<feColorMatrix in="SourceAlpha" type="matrix" values="0 0 0 0 0 0 0 0 0 0 0 0 0 0 0 0 0 0 127 0" result="hardAlpha"/>
<feOffset dx="-0.655402"/>
<feGaussianBlur stdDeviation="0.327701"/>
<feComposite in2="hardAlpha" operator="arithmetic" k2="-1" k3="1"/>
<feColorMatrix type="matrix" values="0 0 0 0 1 0 0 0 0 1 0 0 0 0 1 0 0 0 0.2 0"/>
<feBlend mode="normal" in2="effect3_innerShadow_11830_3540" result="effect4_innerShadow_11830_3540"/>
</filter>
<filter id="filter7_iiii_11830_3540" x="27.8361" y="96.9181" width="2.31177" height="2.24578" filterUnits="userSpaceOnUse" color-interpolation-filters="sRGB">
<feFlood flood-opacity="0" result="BackgroundImageFix"/>
<feBlend mode="normal" in="SourceGraphic" in2="BackgroundImageFix" result="shape"/>
<feColorMatrix in="SourceAlpha" type="matrix" values="0 0 0 0 0 0 0 0 0 0 0 0 0 0 0 0 0 0 127 0" result="hardAlpha"/>
<feOffset dx="0.163851" dy="0.0819253"/>
<feGaussianBlur stdDeviation="0.0739603"/>
<feComposite in2="hardAlpha" operator="arithmetic" k2="-1" k3="1"/>
<feColorMatrix type="matrix" values="0 0 0 0 0.225962 0 0 0 0 0.189791 0 0 0 0 0.0286653 0 0 0 0.4 0"/>
<feBlend mode="normal" in2="shape" result="effect1_innerShadow_11830_3540"/>
<feColorMatrix in="SourceAlpha" type="matrix" values="0 0 0 0 0 0 0 0 0 0 0 0 0 0 0 0 0 0 127 0" result="hardAlpha"/>
<feOffset dx="-0.122888" dy="-0.0819253"/>
<feGaussianBlur stdDeviation="0.0663595"/>
<feComposite in2="hardAlpha" operator="arithmetic" k2="-1" k3="1"/>
<feColorMatrix type="matrix" values="0 0 0 0 1 0 0 0 0 0.827451 0 0 0 0 0.196078 0 0 0 0.4 0"/>
<feBlend mode="normal" in2="effect1_innerShadow_11830_3540" result="effect2_innerShadow_11830_3540"/>
<feColorMatrix in="SourceAlpha" type="matrix" values="0 0 0 0 0 0 0 0 0 0 0 0 0 0 0 0 0 0 127 0" result="hardAlpha"/>
<feOffset dx="-0.0819253" dy="0.163851"/>
<feGaussianBlur stdDeviation="0.0853388"/>
<feComposite in2="hardAlpha" operator="arithmetic" k2="-1" k3="1"/>
<feColorMatrix type="matrix" values="0 0 0 0 1 0 0 0 0 1 0 0 0 0 1 0 0 0 0.3 0"/>
<feBlend mode="normal" in2="effect2_innerShadow_11830_3540" result="effect3_innerShadow_11830_3540"/>
<feColorMatrix in="SourceAlpha" type="matrix" values="0 0 0 0 0 0 0 0 0 0 0 0 0 0 0 0 0 0 127 0" result="hardAlpha"/>
<feOffset dx="-0.163851"/>
<feGaussianBlur stdDeviation="0.0819253"/>
<feComposite in2="hardAlpha" operator="arithmetic" k2="-1" k3="1"/>
<feColorMatrix type="matrix" values="0 0 0 0 1 0 0 0 0 1 0 0 0 0 1 0 0 0 0.2 0"/>
<feBlend mode="normal" in2="effect3_innerShadow_11830_3540" result="effect4_innerShadow_11830_3540"/>
</filter>
<filter id="filter8_iiii_11830_3540" x="129.672" y="94.8361" width="6.62354" height="6.49155" filterUnits="userSpaceOnUse" color-interpolation-filters="sRGB">
<feFlood flood-opacity="0" result="BackgroundImageFix"/>
<feBlend mode="normal" in="SourceGraphic" in2="BackgroundImageFix" result="shape"/>
<feColorMatrix in="SourceAlpha" type="matrix" values="0 0 0 0 0 0 0 0 0 0 0 0 0 0 0 0 0 0 127 0" result="hardAlpha"/>
<feOffset dx="0.327701" dy="0.163851"/>
<feGaussianBlur stdDeviation="0.147921"/>
<feComposite in2="hardAlpha" operator="arithmetic" k2="-1" k3="1"/>
<feColorMatrix type="matrix" values="0 0 0 0 0.225962 0 0 0 0 0.189791 0 0 0 0 0.0286653 0 0 0 0.4 0"/>
<feBlend mode="normal" in2="shape" result="effect1_innerShadow_11830_3540"/>
<feColorMatrix in="SourceAlpha" type="matrix" values="0 0 0 0 0 0 0 0 0 0 0 0 0 0 0 0 0 0 127 0" result="hardAlpha"/>
<feOffset dx="-0.245776" dy="-0.163851"/>
<feGaussianBlur stdDeviation="0.132719"/>
<feComposite in2="hardAlpha" operator="arithmetic" k2="-1" k3="1"/>
<feColorMatrix type="matrix" values="0 0 0 0 1 0 0 0 0 0.827451 0 0 0 0 0.196078 0 0 0 0.4 0"/>
<feBlend mode="normal" in2="effect1_innerShadow_11830_3540" result="effect2_innerShadow_11830_3540"/>
<feColorMatrix in="SourceAlpha" type="matrix" values="0 0 0 0 0 0 0 0 0 0 0 0 0 0 0 0 0 0 127 0" result="hardAlpha"/>
<feOffset dx="-0.163851" dy="0.327701"/>
<feGaussianBlur stdDeviation="0.170678"/>
<feComposite in2="hardAlpha" operator="arithmetic" k2="-1" k3="1"/>
<feColorMatrix type="matrix" values="0 0 0 0 1 0 0 0 0 1 0 0 0 0 1 0 0 0 0.3 0"/>
<feBlend mode="normal" in2="effect2_innerShadow_11830_3540" result="effect3_innerShadow_11830_3540"/>
<feColorMatrix in="SourceAlpha" type="matrix" values="0 0 0 0 0 0 0 0 0 0 0 0 0 0 0 0 0 0 127 0" result="hardAlpha"/>
<feOffset dx="-0.327701"/>
<feGaussianBlur stdDeviation="0.163851"/>
<feComposite in2="hardAlpha" operator="arithmetic" k2="-1" k3="1"/>
<feColorMatrix type="matrix" values="0 0 0 0 1 0 0 0 0 1 0 0 0 0 1 0 0 0 0.2 0"/>
<feBlend mode="normal" in2="effect3_innerShadow_11830_3540" result="effect4_innerShadow_11830_3540"/>
</filter>
<linearGradient id="paint0_linear_11830_3540" x1="59.04" y1="102.197" x2="104.471" y2="45.5144" gradientUnits="userSpaceOnUse">
<stop stop-color="#EECE5A" stop-opacity="0.25"/>
<stop offset="1" stop-color="#EECE5A" stop-opacity="0.5"/>
</linearGradient>
<linearGradient id="paint1_linear_11830_3540" x1="60.4824" y1="103.639" x2="64.4198" y2="42.6777" gradientUnits="userSpaceOnUse">
<stop offset="0.026737" stop-color="#2D260C" stop-opacity="0.5"/>
<stop offset="0.297207" stop-color="#EECE5A" stop-opacity="0.83"/>
<stop offset="0.657218" stop-color="#2D260C" stop-opacity="0.5"/>
<stop offset="1" stop-color="#EECE5A" stop-opacity="0.7"/>
</linearGradient>
<linearGradient id="paint2_linear_11830_3540" x1="55.1339" y1="13.782" x2="57.0838" y2="11.4251" gradientUnits="userSpaceOnUse">
<stop stop-color="#EECE5A" stop-opacity="0.5"/>
<stop offset="1" stop-color="#EECE5A" stop-opacity="0.75"/>
</linearGradient>
<linearGradient id="paint3_linear_11830_3540" x1="55.1935" y1="13.8435" x2="55.3668" y2="11.2446" gradientUnits="userSpaceOnUse">
<stop offset="0.026737" stop-color="#2D260C" stop-opacity="0.5"/>
<stop offset="0.297207" stop-color="#EECE5A" stop-opacity="0.83"/>
<stop offset="0.657218" stop-color="#2D260C" stop-opacity="0.5"/>
<stop offset="1" stop-color="#EECE5A" stop-opacity="0.7"/>
</linearGradient>
<linearGradient id="paint4_linear_11830_3540" x1="30.268" y1="35.5629" x2="34.1677" y2="30.8491" gradientUnits="userSpaceOnUse">
<stop stop-color="#EECE5A" stop-opacity="0.5"/>
<stop offset="1" stop-color="#EECE5A" stop-opacity="0.75"/>
</linearGradient>
<linearGradient id="paint5_linear_11830_3540" x1="30.3872" y1="35.6859" x2="30.7337" y2="30.488" gradientUnits="userSpaceOnUse">
<stop offset="0.026737" stop-color="#2D260C" stop-opacity="0.5"/>
<stop offset="0.297207" stop-color="#EECE5A" stop-opacity="0.83"/>
<stop offset="0.657218" stop-color="#2D260C" stop-opacity="0.5"/>
<stop offset="1" stop-color="#EECE5A" stop-opacity="0.7"/>
</linearGradient>
<linearGradient id="paint6_linear_11830_3540" x1="94.67" y1="53.9072" x2="104.419" y2="42.1227" gradientUnits="userSpaceOnUse">
<stop stop-color="#EECE5A" stop-opacity="0.5"/>
<stop offset="1" stop-color="#EECE5A" stop-opacity="0.75"/>
</linearGradient>
<linearGradient id="paint7_linear_11830_3540" x1="94.968" y1="54.2148" x2="95.8343" y2="41.22" gradientUnits="userSpaceOnUse">
<stop offset="0.026737" stop-color="#2D260C" stop-opacity="0.5"/>
<stop offset="0.297207" stop-color="#EECE5A" stop-opacity="0.83"/>
<stop offset="0.657218" stop-color="#2D260C" stop-opacity="0.5"/>
<stop offset="1" stop-color="#EECE5A" stop-opacity="0.7"/>
</linearGradient>
<linearGradient id="paint8_linear_11830_3540" x1="115.134" y1="51.782" x2="117.084" y2="49.4251" gradientUnits="userSpaceOnUse">
<stop stop-color="#EECE5A" stop-opacity="0.5"/>
<stop offset="1" stop-color="#EECE5A" stop-opacity="0.75"/>
</linearGradient>
<linearGradient id="paint9_linear_11830_3540" x1="115.194" y1="51.8435" x2="115.367" y2="49.2446" gradientUnits="userSpaceOnUse">
<stop offset="0.026737" stop-color="#2D260C" stop-opacity="0.5"/>
<stop offset="0.297207" stop-color="#EECE5A" stop-opacity="0.83"/>
<stop offset="0.657218" stop-color="#2D260C" stop-opacity="0.5"/>
<stop offset="1" stop-color="#EECE5A" stop-opacity="0.7"/>
</linearGradient>
<linearGradient id="paint10_linear_11830_3540" x1="15.67" y1="112.907" x2="25.4193" y2="101.123" gradientUnits="userSpaceOnUse">
<stop stop-color="#EECE5A" stop-opacity="0.5"/>
<stop offset="1" stop-color="#EECE5A" stop-opacity="0.75"/>
</linearGradient>
<linearGradient id="paint11_linear_11830_3540" x1="15.968" y1="113.215" x2="16.8343" y2="100.22" gradientUnits="userSpaceOnUse">
<stop offset="0.026737" stop-color="#2D260C" stop-opacity="0.5"/>
<stop offset="0.297207" stop-color="#EECE5A" stop-opacity="0.83"/>
<stop offset="0.657218" stop-color="#2D260C" stop-opacity="0.5"/>
<stop offset="1" stop-color="#EECE5A" stop-opacity="0.7"/>
</linearGradient>
<linearGradient id="paint12_linear_11830_3540" x1="28.1339" y1="99.782" x2="30.0838" y2="97.4251" gradientUnits="userSpaceOnUse">
<stop stop-color="#EECE5A" stop-opacity="0.5"/>
<stop offset="1" stop-color="#EECE5A" stop-opacity="0.75"/>
</linearGradient>
<linearGradient id="paint13_linear_11830_3540" x1="28.1935" y1="99.8435" x2="28.3668" y2="97.2446" gradientUnits="userSpaceOnUse">
<stop offset="0.026737" stop-color="#2D260C" stop-opacity="0.5"/>
<stop offset="0.297207" stop-color="#EECE5A" stop-opacity="0.83"/>
<stop offset="0.657218" stop-color="#2D260C" stop-opacity="0.5"/>
<stop offset="1" stop-color="#EECE5A" stop-opacity="0.7"/>
</linearGradient>
<linearGradient id="paint14_linear_11830_3540" x1="130.402" y1="103.344" x2="136.252" y2="96.2736" gradientUnits="userSpaceOnUse">
<stop stop-color="#EECE5A" stop-opacity="0.5"/>
<stop offset="1" stop-color="#EECE5A" stop-opacity="0.75"/>
</linearGradient>
<linearGradient id="paint15_linear_11830_3540" x1="130.581" y1="103.529" x2="131.101" y2="95.732" gradientUnits="userSpaceOnUse">
<stop offset="0.026737" stop-color="#2D260C" stop-opacity="0.5"/>
<stop offset="0.297207" stop-color="#EECE5A" stop-opacity="0.83"/>
<stop offset="0.657218" stop-color="#2D260C" stop-opacity="0.5"/>
<stop offset="1" stop-color="#EECE5A" stop-opacity="0.7"/>
</linearGradient>
</defs>
</svg>
