<svg width="24" height="24" viewBox="0 0 24 24" fill="none" xmlns="http://www.w3.org/2000/svg">
<path d="M12.749 16.3193C13.065 16.3193 13.3213 16.5684 13.3213 16.876V18.1943L14.4951 17.5352C14.7686 17.3814 15.1183 17.4721 15.2764 17.7383C15.4343 18.0046 15.3409 18.3462 15.0674 18.5L13.8945 19.1582L15.0674 19.8184C15.3409 19.9721 15.4351 20.3127 15.2773 20.5791C15.1193 20.8455 14.7687 20.937 14.4951 20.7832L13.3213 20.123V21.4434C13.3211 21.7508 13.0649 22 12.749 22C12.4333 21.9999 12.1769 21.7507 12.1768 21.4434V20.124L11.0039 20.7832C10.7303 20.9368 10.3806 20.8454 10.2227 20.5791C10.0648 20.3127 10.159 19.9721 10.4326 19.8184L11.6055 19.1582L10.4326 18.5C10.159 18.3462 10.0657 18.0047 10.2236 17.7383C10.3817 17.4722 10.7314 17.3815 11.0049 17.5352L12.1768 18.1934V16.876C12.1768 16.5685 12.4332 16.3195 12.749 16.3193ZM6.04004 19.4736C6.15804 19.4736 6.25391 19.5665 6.25391 19.6807V20.1699L6.69238 19.9248C6.79451 19.868 6.92448 19.9022 6.9834 20.001C7.04238 20.0999 7.00745 20.2261 6.90527 20.2832L6.46777 20.5273L6.90625 20.7725C7.0081 20.8295 7.04292 20.9559 6.98438 21.0547C6.9254 21.1535 6.79454 21.1878 6.69238 21.1309L6.25391 20.8857V21.376C6.2538 21.4901 6.15797 21.583 6.04004 21.583C5.92212 21.583 5.82627 21.4901 5.82617 21.376V20.8857L5.38867 21.1309C5.28649 21.188 5.15568 21.1536 5.09668 21.0547C5.03792 20.9558 5.07271 20.8295 5.1748 20.7725L5.61328 20.5273L5.1748 20.2832C5.07276 20.2261 5.0379 20.0998 5.09668 20.001C5.15567 19.9021 5.28649 19.8677 5.38867 19.9248L5.82617 20.1699V19.6807C5.82617 19.5665 5.92206 19.4737 6.04004 19.4736ZM18.4658 16.3193C18.6477 16.3195 18.7949 16.4597 18.7949 16.6328V17.375L19.4707 17.0039C19.6282 16.9174 19.8298 16.9685 19.9209 17.1182C20.0119 17.2681 19.9582 17.4602 19.8008 17.5469L19.125 17.918L19.8008 18.29C19.9584 18.3767 20.0129 18.5687 19.9219 18.7188C19.8309 18.8688 19.6293 18.9196 19.4717 18.833L18.7949 18.4619V19.2051C18.7949 19.3782 18.6477 19.5184 18.4658 19.5186C18.2838 19.5186 18.1357 19.3783 18.1357 19.2051V18.4619L17.46 18.833C17.3023 18.9196 17.1008 18.8688 17.0098 18.7188C16.9188 18.5687 16.9732 18.3767 17.1309 18.29L17.8066 17.918L17.1309 17.5469C16.9734 17.4602 16.9198 17.2681 17.0107 17.1182C17.1019 16.9685 17.3035 16.9174 17.4609 17.0039L18.1357 17.375V16.6328C18.1357 16.4595 18.2838 16.3193 18.4658 16.3193ZM7.75293 15.0781C7.89014 15.0781 8.00195 15.1869 8.00195 15.3213V15.8975L8.51074 15.6094C8.62957 15.5422 8.78198 15.5818 8.85059 15.6982C8.91896 15.8145 8.8783 15.963 8.75977 16.0303L8.25 16.3184L8.75977 16.6064C8.87859 16.6737 8.91919 16.823 8.85059 16.9395C8.78198 17.0556 8.63043 17.0953 8.51172 17.0283L8.00195 16.7402V17.3164C8.00195 17.4508 7.89014 17.5605 7.75293 17.5605C7.61577 17.5605 7.50488 17.4508 7.50488 17.3164V16.7402L6.99512 17.0283C6.87641 17.0954 6.72493 17.0556 6.65625 16.9395C6.58765 16.823 6.62824 16.6737 6.74707 16.6064L7.25586 16.3184L6.74707 16.0303C6.62835 15.9631 6.58775 15.8146 6.65625 15.6982C6.72483 15.5819 6.87631 15.5423 6.99512 15.6094L7.50488 15.8965V15.3213C7.50488 15.1869 7.61577 15.0782 7.75293 15.0781ZM12.9463 2C15.7286 2 17.9843 4.2036 17.9844 6.92188C17.9844 7.17036 17.9661 7.41473 17.9297 7.65332L17.9121 7.77734C17.9093 7.80796 17.9101 7.8303 17.915 7.84668C17.9297 7.89423 17.9575 7.92383 18.0039 7.94238C18.0199 7.94868 18.0419 7.9514 18.0732 7.95117L18.2002 7.94434C18.279 7.93911 18.3593 7.93653 18.4395 7.93652C20.4056 7.93665 21.9997 9.51752 22 11.4678C22 13.3473 20.5195 14.8847 18.6523 14.9941L18.4707 15H6.04395L6.02832 14.9844C3.84228 14.7996 2.11112 13.0319 2.00488 10.8418L2 10.6279C2.00024 8.21371 3.9733 6.25603 6.40723 6.25586C6.83577 6.25586 7.25085 6.31652 7.64258 6.42969C7.73543 6.45651 7.78197 6.4704 7.81445 6.46582C7.84934 6.46073 7.87716 6.44764 7.89941 6.4248L7.91992 6.39844C7.93768 6.37086 7.94515 6.32219 7.95898 6.22656C8.30477 3.83776 10.4059 2.00032 12.9463 2Z" fill="#FDFEFE"/>
</svg>
