<svg width="24" height="24" viewBox="0 0 24 24" fill="none" xmlns="http://www.w3.org/2000/svg">
<path d="M9.74287 20.999C5.18104 21.0868 2.73725 15.2708 5.99013 12.0828V6.7498C6.14849 1.79332 13.3387 1.80007 13.4956 6.7498V12.0828C16.7492 15.2716 14.304 21.0868 9.74287 20.999ZM9.74287 4.49992C9.1457 4.49992 8.57298 4.73696 8.15072 5.15889C7.72845 5.58083 7.49122 6.15309 7.49122 6.7498V12.4022C7.49121 12.5075 7.46901 12.6116 7.42608 12.7077C7.38315 12.8039 7.32044 12.8899 7.24204 12.9602C6.68482 13.4699 6.29387 14.1353 6.11999 14.8699C5.94611 15.6045 5.99734 16.3743 6.26702 17.0794C6.5367 17.7846 7.01236 18.3924 7.63221 18.8239C8.25207 19.2554 8.98747 19.4906 9.74287 19.4991C10.4983 19.4906 11.2337 19.2554 11.8535 18.8239C12.4734 18.3924 12.949 17.7846 13.2187 17.0794C13.4884 16.3743 13.5396 15.6045 13.3657 14.8699C13.1919 14.1353 12.8009 13.4699 12.2437 12.9602C12.1653 12.8899 12.1026 12.8039 12.0597 12.7077C12.0167 12.6116 11.9945 12.5075 11.9945 12.4022V6.7498C11.9945 6.15309 11.7573 5.58083 11.335 5.15889C10.9128 4.73696 10.34 4.49992 9.74287 4.49992ZM9.74287 17.9992C9.21539 17.9926 8.70689 17.8015 8.30572 17.4592C7.90454 17.117 7.63603 16.6451 7.54684 16.1255C7.45764 15.606 7.55339 15.0717 7.81745 14.6154C8.08152 14.1591 8.49721 13.8096 8.99232 13.6277V6.7498C8.99232 6.55089 9.0714 6.36014 9.21215 6.21949C9.35291 6.07885 9.54381 5.99984 9.74287 5.99984C9.94193 5.99984 10.1328 6.07885 10.2736 6.21949C10.4143 6.36014 10.4934 6.55089 10.4934 6.7498V13.6277C10.9885 13.8096 11.4042 14.1591 11.6683 14.6154C11.9323 15.0717 12.0281 15.606 11.9389 16.1255C11.8497 16.6451 11.5812 17.117 11.18 17.4592C10.7788 17.8015 10.2704 17.9926 9.74287 17.9992ZM17.2484 7.49975C16.6512 7.49975 16.0785 7.26271 15.6562 6.84078C15.2339 6.41885 14.9967 5.84658 14.9967 5.24988C14.9967 4.65317 15.2339 4.08091 15.6562 3.65897C16.0785 3.23704 16.6512 3 17.2484 3C17.8455 3 18.4182 3.23704 18.8405 3.65897C19.2628 4.08091 19.5 4.65317 19.5 5.24988C19.5 5.84658 19.2628 6.41885 18.8405 6.84078C18.4182 7.26271 17.8455 7.49975 17.2484 7.49975ZM17.2484 4.49992C17.0493 4.49992 16.8584 4.57893 16.7176 4.71958C16.5769 4.86022 16.4978 5.05098 16.4978 5.24988C16.4978 5.44878 16.5769 5.63953 16.7176 5.78018C16.8584 5.92082 17.0493 5.99984 17.2484 5.99984C17.4474 5.99984 17.6383 5.92082 17.7791 5.78018C17.9198 5.63953 17.9989 5.44878 17.9989 5.24988C17.9989 5.05098 17.9198 4.86022 17.7791 4.71958C17.6383 4.57893 17.4474 4.49992 17.2484 4.49992Z" fill="#FDFEFE"/>
</svg>
