<svg width="24" height="24" viewBox="0 0 24 24" fill="none" xmlns="http://www.w3.org/2000/svg">
<path fill-rule="evenodd" clip-rule="evenodd" d="M13.1429 2C13.6162 2 14 2.38376 14 2.85714C14 3.33053 13.6162 3.71429 13.1429 3.71429H12.8571V4.90848C14.1347 5.06128 15.3086 5.55113 16.2874 6.28683L17.1462 5.42857L17.0508 5.33315C16.7161 4.99844 16.7161 4.45583 17.0508 4.12109C17.3855 3.78636 17.9281 3.78636 18.2628 4.12109L19.8789 5.73717C20.2136 6.0719 20.2136 6.61448 19.8789 6.94922C19.5442 7.28388 19.0016 7.28393 18.6669 6.94922L18.3583 6.64062L17.5251 7.47321C18.3653 8.49745 18.926 9.75932 19.0915 11.1429H20.2857V10.8571C20.2857 10.3838 20.6695 10 21.1429 10C21.6162 10 22 10.3838 22 10.8571V13.1429C22 13.6162 21.6162 14 21.1429 14C20.6695 14 20.2857 13.6162 20.2857 13.1429V12.8571H19.0915C18.9324 14.1877 18.4061 15.4045 17.6189 16.4068L18.4648 17.2528L18.6669 17.0508C19.0016 16.7161 19.5442 16.7161 19.8789 17.0508C20.2136 17.3855 20.2136 17.9281 19.8789 18.2628L18.2628 19.8789C17.9281 20.2136 17.3855 20.2136 17.0508 19.8789C16.7161 19.5442 16.7161 19.0016 17.0508 18.6669L17.2528 18.4648L16.4068 17.6189C15.4045 18.4061 14.1877 18.9318 12.8571 19.091V20.2857H13.1429C13.6162 20.2857 14 20.6695 14 21.1429C14 21.6162 13.6162 22 13.1429 22H10.8571C10.3838 22 10 21.6162 10 21.1429C10 20.6695 10.3838 20.2857 10.8571 20.2857H11.1429V19.091C9.75934 18.9255 8.49743 18.3653 7.47321 17.5251L6.64062 18.3583L6.94922 18.6669C7.28395 19.0016 7.28395 19.5447 6.94922 19.8795C6.61454 20.2141 6.07189 20.214 5.73717 19.8795L4.12054 18.2628C3.78603 17.9281 3.78594 17.3855 4.12054 17.0508C4.45527 16.716 4.99841 16.716 5.33315 17.0508L5.42857 17.1462L6.28683 16.2874C5.55113 15.3086 5.06128 14.1347 4.90848 12.8571H3.71429V13.1429C3.71429 13.6162 3.33053 14 2.85714 14C2.38376 14 2 13.6162 2 13.1429V10.8571C2 10.3838 2.38376 10 2.85714 10C3.33053 10 3.71429 10.3838 3.71429 10.8571V11.1429H4.90848C5.06762 9.81229 5.59332 8.595 6.38058 7.59263L5.53516 6.74721L5.33315 6.94922C4.99846 7.28391 4.45584 7.28382 4.12109 6.94922C3.78636 6.61448 3.78636 6.0719 4.12109 5.73717L5.73717 4.12054C6.07186 3.78598 6.61452 3.78599 6.94922 4.12054C7.28395 4.45527 7.28395 4.99841 6.94922 5.33315L6.74721 5.53516L7.59263 6.38058C8.595 5.59332 9.81229 5.06762 11.1429 4.90848V3.71429H10.8571C10.3838 3.71429 10 3.33053 10 2.85714C10 2.38376 10.3838 2 10.8571 2H13.1429ZM14.5748 14.3666C13.8459 14.3666 13.255 14.9575 13.255 15.6864C13.255 16.4153 13.8459 17.0061 14.5748 17.0061C15.3036 17.0061 15.8945 16.4152 15.8945 15.6864C15.8945 14.9576 15.3036 14.3667 14.5748 14.3666ZM9.5 13.1311C8.60858 13.1312 7.88624 13.8536 7.88616 14.745C7.88616 15.6365 8.60853 16.3593 9.5 16.3594C10.3915 16.3594 11.1144 15.6365 11.1144 14.745C11.1143 13.8535 10.3915 13.1311 9.5 13.1311ZM12.1049 11.3912C11.5579 11.3913 11.1145 11.8347 11.1144 12.3817C11.1144 12.9288 11.5579 13.3727 12.1049 13.3728C12.652 13.3728 13.096 12.9288 13.096 12.3817C13.0959 11.8346 12.652 11.3912 12.1049 11.3912ZM15.8945 9.59821C15.3475 9.59821 14.9041 10.0417 14.904 10.5887C14.904 11.1359 15.3474 11.5798 15.8945 11.5798C16.4416 11.5797 16.885 11.1358 16.885 10.5887C16.885 10.0417 16.4415 9.59829 15.8945 9.59821ZM11.1144 6.78125C10.0628 6.78125 9.21038 7.63371 9.21038 8.68527C9.21053 9.7367 10.0629 10.5893 11.1144 10.5893C12.1659 10.5893 13.0183 9.7367 13.0184 8.68527C13.0184 7.63371 12.166 6.78125 11.1144 6.78125Z" fill="#FDFEFE"/>
</svg>
