<svg width="24" height="24" viewBox="0 0 24 24" fill="none" xmlns="http://www.w3.org/2000/svg">
<path d="M8.21582 18.9805C8.48509 19.0411 8.64316 19.3063 8.56934 19.5723L8.10938 21.2285L8.07324 21.3232C7.96684 21.5324 7.72388 21.6534 7.48828 21.6006C7.25268 21.5476 7.10091 21.338 7.11621 21.1084L7.13379 21.0088L7.59375 19.3525C7.66779 19.0867 7.94652 18.9199 8.21582 18.9805ZM11.8838 17.7988C12.1532 17.8594 12.3112 18.1246 12.2373 18.3906L11.5049 21.0273L11.4688 21.1221C11.3623 21.3314 11.1195 21.4524 10.8838 21.3994C10.6481 21.3464 10.4973 21.1369 10.5127 20.9072L10.5293 20.8076L11.2617 18.1709C11.3357 17.905 11.6145 17.7383 11.8838 17.7988ZM18.0146 17.7988C18.284 17.8594 18.442 18.1246 18.3682 18.3906L17.6357 21.0273L17.5996 21.1221C17.4932 21.3314 17.2504 21.4524 17.0146 21.3994C16.779 21.3464 16.6282 21.1369 16.6436 20.9072L16.6602 20.8076L17.3926 18.1709C17.4666 17.905 17.7453 17.7383 18.0146 17.7988ZM14.5146 20.0898C14.784 20.1505 14.942 20.4156 14.8682 20.6816L14.7793 21.002C14.7053 21.2678 14.4274 21.4345 14.1582 21.374C13.8888 21.3134 13.7299 21.0483 13.8037 20.7822L13.8926 20.4619C13.9666 20.196 14.2453 20.0293 14.5146 20.0898ZM5.48828 16.8184C5.75755 16.879 5.91562 17.1442 5.8418 17.4102L5.10938 20.0469L5.07324 20.1416C4.96686 20.3509 4.72396 20.4718 4.48828 20.4189C4.25264 20.3659 4.10085 20.1564 4.11621 19.9268L4.13379 19.8271L4.86621 17.1904C4.94025 16.9245 5.21898 16.7578 5.48828 16.8184ZM15.5146 15.5537C15.784 15.6143 15.942 15.8795 15.8682 16.1455L15.1357 18.7822L15.0996 18.877C14.9932 19.0863 14.7504 19.2073 14.5146 19.1543C14.279 19.1013 14.1282 18.8918 14.1436 18.6621L14.1602 18.5625L14.8926 15.9258C14.9666 15.6599 15.2453 15.4932 15.5146 15.5537ZM12.9463 2.29004C15.7286 2.29004 17.9843 4.49364 17.9844 7.21191C17.9844 7.46039 17.9661 7.70477 17.9297 7.94336L17.9121 8.06738C17.9093 8.098 17.9101 8.12033 17.915 8.13672C17.9297 8.18427 17.9575 8.21387 18.0039 8.23242C18.0199 8.23872 18.0419 8.24144 18.0732 8.24121L18.2002 8.23438C18.279 8.22915 18.3593 8.22657 18.4395 8.22656C20.4056 8.22669 21.9997 9.80756 22 11.7578C22 13.5582 20.6413 15.0426 18.8857 15.2607L18.6357 16.1621L18.5996 16.2568C18.4932 16.4661 18.2504 16.5872 18.0146 16.5342C17.779 16.4812 17.6282 16.2717 17.6436 16.042L17.6602 15.9424L17.8418 15.29H13.3691L13.0479 16.4473L13.0107 16.542C12.9042 16.7512 12.6615 16.8724 12.4258 16.8193C12.1902 16.7663 12.0394 16.5568 12.0547 16.3271L12.0723 16.2275L12.333 15.29H10.1494L9.5 17.6279L9.46387 17.7227C9.35743 17.932 9.11463 18.053 8.87891 18C8.64325 17.947 8.49243 17.7375 8.50781 17.5078L8.52441 17.4082L9.1123 15.29H6.93262L6.83887 15.6279L6.80273 15.7227C6.69629 15.932 6.4535 16.053 6.21777 16C5.98212 15.947 5.83129 15.7375 5.84668 15.5078L5.86328 15.4082L5.90332 15.2598C3.77673 15.0194 2.10908 13.2799 2.00488 11.1318L2 10.918C2.00024 8.50375 3.9733 6.54607 6.40723 6.5459C6.83577 6.5459 7.25085 6.60656 7.64258 6.71973C7.73543 6.74655 7.78197 6.76044 7.81445 6.75586C7.84934 6.75077 7.87716 6.73768 7.89941 6.71484L7.91992 6.68848C7.93768 6.66089 7.94515 6.61223 7.95898 6.5166C8.30477 4.1278 10.4059 2.29036 12.9463 2.29004Z" fill="#FDFEFE"/>
</svg>
