<svg width="24" height="24" viewBox="0 0 24 24" fill="none" xmlns="http://www.w3.org/2000/svg">
<path d="M13.3701 8.68457C13.4638 8.68457 13.5571 8.68719 13.6494 8.69238C13.67 8.69355 13.6904 8.69584 13.7109 8.69727C13.7774 8.70184 13.8435 8.70763 13.9092 8.71484C13.9395 8.7182 13.9698 8.72168 14 8.72559C14.0652 8.73398 14.13 8.74394 14.1943 8.75488C14.2162 8.75861 14.238 8.76258 14.2598 8.7666C16.4706 9.17376 18.1435 11.0694 18.1436 13.3477C18.1435 13.5829 18.1252 13.8141 18.0908 14.04L18.0752 14.1582C18.0726 14.1869 18.0726 14.2072 18.0771 14.2227C18.091 14.268 18.1179 14.2968 18.1621 14.3145C18.1771 14.3203 18.1974 14.3225 18.2266 14.3223L18.3477 14.3164C18.4223 14.3115 18.4983 14.3086 18.5742 14.3086C20.437 14.3088 21.9472 15.8066 21.9473 17.6543C21.9473 19.4349 20.5443 20.8905 18.7754 20.9941L18.6035 21H6.83105L6.81641 20.9854C4.74539 20.8103 3.10546 19.1354 3.00488 17.0605L3 16.8584C3.00023 14.5712 4.86991 12.7169 7.17578 12.7168C7.58153 12.7168 7.97382 12.7747 8.34473 12.8818C8.43328 12.9074 8.47796 12.9195 8.50879 12.915C8.54195 12.9102 8.56775 12.8978 8.58887 12.876L8.6084 12.8516C8.6252 12.8255 8.63244 12.7798 8.64551 12.6895C8.66971 12.5222 8.70324 12.3574 8.74512 12.1963C8.77751 12.0717 8.81597 11.9495 8.8584 11.8291C8.88756 11.7464 8.91843 11.6645 8.95215 11.584C8.96512 11.553 8.97759 11.5219 8.99121 11.4912C9.03705 11.3881 9.08755 11.2875 9.14062 11.1885C9.15294 11.1655 9.16407 11.1419 9.17676 11.1191C9.22899 11.0255 9.28528 10.9343 9.34375 10.8447C9.35737 10.8239 9.37082 10.8029 9.38477 10.7822C9.40272 10.7557 9.42097 10.7293 9.43945 10.7031C9.46045 10.6734 9.48125 10.6435 9.50293 10.6143C9.52228 10.5882 9.54261 10.5628 9.5625 10.5371C9.58507 10.508 9.60761 10.4788 9.63086 10.4502C9.64952 10.4272 9.66841 10.4044 9.6875 10.3818C9.71028 10.3549 9.73345 10.3282 9.75684 10.3018C9.78369 10.2714 9.81123 10.2416 9.83887 10.2119C9.84907 10.201 9.85883 10.1896 9.86914 10.1787L9.92578 10.1201C9.99172 10.053 10.06 9.98802 10.1299 9.9248C10.1468 9.90951 10.1635 9.89397 10.1807 9.87891C10.2157 9.84814 10.2512 9.81784 10.2871 9.78809C10.3032 9.7748 10.3197 9.76211 10.3359 9.74902C10.3719 9.72007 10.4085 9.692 10.4453 9.66406C10.4644 9.64958 10.4836 9.6353 10.5029 9.62109C10.5378 9.59541 10.5728 9.56968 10.6084 9.54492C10.6249 9.53344 10.6415 9.52202 10.6582 9.51074C10.7004 9.4822 10.7429 9.45399 10.7861 9.42676C10.7975 9.41958 10.8089 9.41236 10.8203 9.40527C10.8615 9.3798 10.9033 9.35532 10.9453 9.33105C10.9755 9.31364 11.0056 9.29608 11.0361 9.2793C11.0608 9.26578 11.0855 9.25236 11.1104 9.23926C11.1439 9.22158 11.1778 9.20441 11.2119 9.1875C11.2471 9.17004 11.2827 9.15334 11.3184 9.13672C11.3359 9.12854 11.3534 9.12028 11.3711 9.1123C11.4131 9.09332 11.4553 9.07445 11.498 9.05664C11.5306 9.04304 11.5637 9.03048 11.5967 9.01758C11.6278 9.00538 11.659 8.99301 11.6904 8.98145C11.7192 8.97087 11.7483 8.96121 11.7773 8.95117C11.8137 8.9386 11.85 8.92579 11.8867 8.91406C11.921 8.90311 11.9556 8.89302 11.9902 8.88281C12.0236 8.87298 12.0572 8.86363 12.0908 8.85449C12.132 8.84333 12.1733 8.83237 12.2148 8.82227C12.2385 8.81651 12.2623 8.81107 12.2861 8.80566C12.3372 8.79406 12.3887 8.78343 12.4404 8.77344C12.46 8.76967 12.4794 8.76526 12.499 8.76172C12.5514 8.75227 12.6042 8.74409 12.6572 8.73633C12.6748 8.73376 12.6923 8.7309 12.71 8.72852C12.8325 8.71193 12.9567 8.70067 13.082 8.69336C13.1773 8.6878 13.2734 8.68458 13.3701 8.68457ZM9.74121 4.89453C11.4532 4.89473 12.8399 6.17761 12.8418 7.76074C10.47 7.97459 8.50179 9.61222 7.86621 11.8164C7.64009 11.7861 7.40958 11.7695 7.17578 11.7695C6.33209 11.7696 5.53497 11.973 4.83203 12.333C3.80626 12.0018 3.05736 11.1118 3.00293 10.0488L3 9.9248C3.00002 8.51724 4.21503 7.3761 5.71387 7.37598C5.97776 7.37598 6.23339 7.41156 6.47461 7.47754C6.53194 7.49322 6.56106 7.50081 6.58105 7.49805C6.60249 7.49503 6.61914 7.48701 6.63281 7.47363L6.64551 7.45898C6.65645 7.4429 6.66043 7.41415 6.66895 7.3584C6.88194 5.96573 8.17679 4.89462 9.74121 4.89453ZM18.9453 3C19.8677 3 20.616 3.8027 20.6162 4.79297C20.6162 4.88341 20.6097 4.97272 20.5977 5.05957L20.5918 5.10547C20.5909 5.11627 20.5912 5.12401 20.5928 5.12988C20.5976 5.14716 20.6069 5.15825 20.6221 5.16504C20.6274 5.16734 20.6351 5.16805 20.6455 5.16797L20.6875 5.16602C20.7136 5.16412 20.7401 5.16309 20.7666 5.16309C21.4186 5.16309 21.9473 5.73948 21.9473 6.4502C21.9471 7.13475 21.4567 7.69425 20.8379 7.73438L20.7773 7.7373H16.6572L16.6543 7.7334L16.6514 7.73145C15.9266 7.66401 15.3526 7.01962 15.3174 6.22168L15.3164 6.14355C15.3166 5.26397 15.9704 4.55082 16.7773 4.55078C16.9194 4.55079 17.0567 4.57306 17.1865 4.61426C17.2175 4.6241 17.2334 4.62868 17.2441 4.62695C17.2557 4.62507 17.2651 4.62066 17.2725 4.6123L17.2793 4.60254C17.2851 4.59246 17.2874 4.57466 17.292 4.54004C17.4067 3.66969 18.103 3.0002 18.9453 3Z" fill="#FDFEFE"/>
</svg>
