<svg width="24" height="24" viewBox="0 0 24 24" fill="none" xmlns="http://www.w3.org/2000/svg">
<path d="M9.08398 14.5186C8.98176 14.2109 9.27433 13.918 9.58203 14.0205L16.7939 16.4248C17.1264 16.5358 17.159 16.9933 16.8457 17.1504L13.875 18.6357C13.7989 18.6738 13.7373 18.7355 13.6992 18.8115L12.2139 21.7822C12.057 22.096 11.5983 22.0633 11.4873 21.7305L9.08398 14.5186ZM12 9H12.0635C12.6155 9.00026 13.0635 9.44788 13.0635 10V14.0762L9.40723 12.8691C8.54756 12.5857 7.7303 13.3956 8.0166 14.2471L9.91602 19.8945H3.06348C2.51119 19.8945 2.0625 19.4468 2.0625 18.8945V10C2.0625 9.44772 2.51119 9 3.06348 9H11V8H12V9ZM16 13H14V12H16V13ZM19 13H17V12H19V13ZM22 12C22 12.5177 21.6067 12.9438 21.1025 12.9951L21 13H20V12H21V11H22V12ZM22 10H21V8H22V10ZM16.5 5.32129C16.7761 5.32139 17 5.54521 17 5.82129V7.06445H18.1787C18.4549 7.06445 18.6787 7.28831 18.6787 7.56445C18.6787 7.8406 18.4549 8.06445 18.1787 8.06445H17V9.17871C17 9.45479 16.7761 9.67861 16.5 9.67871C16.2239 9.67871 16 9.45485 16 9.17871V8.06445H14.8213C14.5452 8.06441 14.3213 7.84057 14.3213 7.56445C14.3213 7.28833 14.5452 7.06449 14.8213 7.06445H16V5.82129C16 5.54515 16.2239 5.32129 16.5 5.32129ZM12 7H11V5H12V7ZM22 7H21V5H22V7ZM13 3H12V4H11V3C11 2.44772 11.4477 2 12 2H13V3ZM21 2C21.5523 2 22 2.44772 22 3V4H21V3H20V2H21ZM16 3H14V2H16V3ZM19 3H17V2H19V3Z" fill="currentColor"/>
</svg>
