<svg width="24" height="24" viewBox="0 0 24 24" fill="none" xmlns="http://www.w3.org/2000/svg">
<path d="M15.9971 9.36274C16.1673 9.3689 16.3288 9.43957 16.4483 9.56098C16.5678 9.68251 16.6363 9.82351 16.6397 10.0161C16.6431 10.2073 16.6397 10.3204 16.4668 10.475L11.9385 14.9457C11.6888 15.1946 11.3506 15.3343 10.9981 15.3344C10.6454 15.3344 10.3066 15.1947 10.0567 14.9457L7.53422 12.477C7.40788 12.3533 7.33598 12.1841 7.33402 12.0073C7.33215 11.8304 7.40077 11.66 7.52445 11.5336C7.64821 11.4072 7.81729 11.3343 7.99418 11.3325C8.17093 11.3307 8.34149 11.3992 8.46781 11.5229L10.9961 13.9946L15.5332 9.52778C15.6611 9.41544 15.827 9.35662 15.9971 9.36274Z" fill="#FDFEFE"/>
</svg>
