<svg width="24" height="24" viewBox="0 0 24 24" fill="none" xmlns="http://www.w3.org/2000/svg">
<path d="M12.1338 19.3096C12.3 19.1215 12.581 19.129 12.7422 19.3213C13.0369 19.6735 13.4443 20.2681 13.4443 20.8623C13.4443 21.5864 12.9443 22 12.4443 22C11.9443 22 11.4444 21.5864 11.4443 20.8623C11.4443 20.2113 11.8402 19.642 12.1338 19.3096ZM16.1338 16.8096C16.3 16.6215 16.581 16.629 16.7422 16.8213C17.0369 17.1735 17.4443 17.7681 17.4443 18.3623C17.4443 19.0864 16.9443 19.5 16.4443 19.5C15.9443 19.5 15.4444 19.0864 15.4443 18.3623C15.4443 17.7113 15.8402 17.142 16.1338 16.8096ZM8.13379 16.3096C8.29995 16.1215 8.581 16.129 8.74219 16.3213C9.03691 16.6735 9.44434 17.2681 9.44434 17.8623C9.44432 18.5864 8.94433 19 8.44434 19C7.94434 19 7.44435 18.5864 7.44434 17.8623C7.44434 17.2113 7.84019 16.642 8.13379 16.3096ZM12.9463 2C15.7286 2 17.9843 4.2036 17.9844 6.92188C17.9844 7.17036 17.9661 7.41473 17.9297 7.65332L17.9121 7.77734C17.9093 7.80796 17.9101 7.8303 17.915 7.84668C17.9297 7.89423 17.9575 7.92383 18.0039 7.94238C18.0199 7.94868 18.0419 7.9514 18.0732 7.95117L18.2002 7.94434C18.279 7.93911 18.3593 7.93653 18.4395 7.93652C20.4056 7.93665 21.9997 9.51752 22 11.4678C22 13.3473 20.5195 14.8847 18.6523 14.9941L18.4707 15H6.04395L6.02832 14.9844C3.84228 14.7996 2.11112 13.0319 2.00488 10.8418L2 10.6279C2.00024 8.21371 3.9733 6.25603 6.40723 6.25586C6.83577 6.25586 7.25085 6.31652 7.64258 6.42969C7.73543 6.45651 7.78197 6.4704 7.81445 6.46582C7.84934 6.46073 7.87716 6.44764 7.89941 6.4248L7.91992 6.39844C7.93768 6.37086 7.94515 6.32219 7.95898 6.22656C8.30477 3.83776 10.4059 2.00032 12.9463 2Z" fill="#FDFEFE"/>
</svg>
