<svg width="24" height="24" viewBox="0 0 24 24" fill="none" xmlns="http://www.w3.org/2000/svg">
<path d="M14.75 7.21C15.4981 6.26604 15.8372 6.25691 16.5625 7.22269C17.8887 8.98868 19.9998 11.8145 20 14.794C20 18.4254 17.75 20.5 15.5 20.5C13.25 20.5 11 18.4254 11 14.794C11.0002 11.5298 13.4288 8.87712 14.75 7.21ZM6.08301 3.9053C6.49858 3.36594 6.68692 3.36125 7.08984 3.91312C7.8266 4.92221 8.99983 6.53669 9 8.23929C9 10.3144 7.75 11.5 6.5 11.5C5.25 11.5 4 10.3144 4 8.23929C4.00017 6.37409 5.34905 4.85791 6.08301 3.9053Z" fill="#FDFEFE"/>
</svg>
