<svg width="24" height="24" viewBox="0 0 24 24" fill="none" xmlns="http://www.w3.org/2000/svg">
<path d="M10.6045 2.00319C10.8448 1.96772 11.0061 2.23563 10.8838 2.44459C10.1889 3.63226 9.79013 5.01305 9.79004 6.48658C9.7903 10.9288 13.4068 14.5304 17.8682 14.5305C19.2009 14.5305 20.4575 14.2076 21.5654 13.638C21.7812 13.527 22.042 13.7007 21.9941 13.9378C21.0656 18.536 16.9892 21.9993 12.0977 21.9993C6.52086 21.9991 2 17.4975 2 11.9446C2.00018 6.89711 5.73601 2.72181 10.6045 2.00319ZM16.7148 4.87721C16.8049 4.60141 17.1951 4.60141 17.2852 4.87721L17.6064 5.86549C17.6467 5.9889 17.7618 6.07252 17.8916 6.07252H18.9297C19.2203 6.07252 19.3415 6.44466 19.1064 6.61549L18.2666 7.22584C18.1615 7.30221 18.1171 7.43722 18.1572 7.5608L18.4785 8.54811C18.5683 8.82441 18.2517 9.05456 18.0166 8.88404L17.1768 8.27369C17.0716 8.1973 16.9284 8.1973 16.8232 8.27369L15.9834 8.88404C15.7483 9.05456 15.4317 8.82441 15.5215 8.54811L15.8428 7.5608C15.8829 7.43722 15.8385 7.30221 15.7334 7.22584L14.8936 6.61549C14.6585 6.44466 14.7797 6.07252 15.0703 6.07252H16.1084C16.2382 6.07252 16.3533 5.9889 16.3936 5.86549L16.7148 4.87721Z" fill="#FDFEFE"/>
</svg>
