<svg width="24" height="24" viewBox="0 0 24 24" fill="none" xmlns="http://www.w3.org/2000/svg">
<path fill-rule="evenodd" clip-rule="evenodd" d="M10.8 5.6C10.2204 5.6 9.73514 6.01174 9.62402 6.55914C9.53612 6.99214 9.11386 7.2719 8.68086 7.18401C8.24786 7.09612 7.9681 6.67385 8.056 6.24086C8.3155 4.96246 9.44446 4 10.8 4C12.3464 4 13.6 5.2536 13.6 6.8C13.6 8.3464 12.3464 9.6 10.8 9.6H6.4C5.95818 9.6 5.6 9.24182 5.6 8.8C5.6 8.35818 5.95818 8 6.4 8H10.8C11.4627 8 12 7.46274 12 6.8C12 6.13726 11.4627 5.6 10.8 5.6ZM17.2 8.8C16.6204 8.8 16.1351 9.21174 16.024 9.75914C15.9362 10.1921 15.5138 10.4719 15.0809 10.384C14.6478 10.2961 14.3681 9.87385 14.456 9.44086C14.7155 8.16246 15.8445 7.2 17.2 7.2C18.7464 7.2 20 8.4536 20 10C20 11.5464 18.7464 12.8 17.2 12.8H4.8C4.35818 12.8 4 12.4418 4 12C4 11.5582 4.35818 11.2 4.8 11.2H17.2C17.8627 11.2 18.4 10.6627 18.4 10C18.4 9.33726 17.8627 8.8 17.2 8.8ZM12.824 17.4409C12.9351 17.9882 13.4204 18.4 14 18.4C14.6627 18.4 15.2 17.8627 15.2 17.2C15.2 16.5373 14.6627 16 14 16H8.8C8.35818 16 8 15.6418 8 15.2C8 14.7582 8.35818 14.4 8.8 14.4H14C15.5464 14.4 16.8 15.6536 16.8 17.2C16.8 18.7464 15.5464 20 14 20C12.6445 20 11.5155 19.0375 11.256 17.7591C11.1681 17.3262 11.4478 16.9039 11.8809 16.816C12.3138 16.7281 12.7362 17.0078 12.824 17.4409Z" fill="currentColor"/>
</svg>
