<svg width="24" height="24" viewBox="0 0 24 24" fill="none" xmlns="http://www.w3.org/2000/svg">
<path d="M8 0.5H16C20.1421 0.5 23.5 3.85786 23.5 8V16C23.5 20.1421 20.1421 23.5 16 23.5H8C3.85786 23.5 0.5 20.1421 0.5 16V8C0.5 3.85786 3.85786 0.5 8 0.5Z" stroke="currentColor"/>
<path d="M15.9967 9.3623C16.167 9.36846 16.3285 9.4401 16.4479 9.56152C16.5674 9.68305 16.6359 9.82405 16.6393 10.0166C16.6427 10.2077 16.639 10.3201 16.4665 10.4746L11.9381 14.9463C11.6884 15.1951 11.3502 15.3349 10.9977 15.335C10.645 15.335 10.3062 15.1952 10.0563 14.9463L7.53384 12.4766C7.40771 12.3529 7.33563 12.1844 7.33365 12.0078C7.33177 11.8309 7.40032 11.6596 7.52408 11.5332C7.64781 11.407 7.81705 11.3349 7.9938 11.333C8.17059 11.3312 8.3411 11.3998 8.46744 11.5234L10.9958 13.9951L15.5329 9.52832C15.6607 9.41595 15.8266 9.35621 15.9967 9.3623Z" fill="currentColor"/>
</svg>
