<svg width="24" height="24" viewBox="0 0 24 24" fill="none" xmlns="http://www.w3.org/2000/svg">
<path d="M14.7578 12.0006C16.9835 12.0008 18.7881 13.6958 18.7881 15.7867C18.7881 15.9777 18.7732 16.1658 18.7441 16.3492L18.7305 16.4449C18.7283 16.4683 18.7285 16.4851 18.7324 16.4976C18.7442 16.5342 18.7666 16.5576 18.8037 16.5719C18.8164 16.5765 18.8337 16.5779 18.8584 16.5777L18.9609 16.5728C19.0238 16.5688 19.0874 16.567 19.1514 16.567C20.7245 16.567 22 17.7834 22 19.2838C21.9998 20.7292 20.8157 21.9113 19.3223 21.9957L19.1768 22.0006H9.23535L9.22266 21.9879C7.47379 21.8457 6.08884 20.4861 6.00391 18.8014L6 18.6373C6.00005 16.7801 7.57909 15.2741 9.52637 15.274L9.78125 15.2818C9.85617 15.2869 9.93035 15.2956 10.0039 15.3053L9.78125 15.2828C10.0337 15.3 10.2788 15.3425 10.5137 15.4078C10.5884 15.4286 10.6263 15.4388 10.6523 15.4351C10.6801 15.4312 10.702 15.4214 10.7197 15.4039L10.7363 15.3834C10.7505 15.3622 10.7555 15.325 10.7666 15.2515C11.0431 13.4138 12.7252 12.0007 14.7578 12.0006ZM9.88379 3.00252C10.0759 2.97428 10.2051 3.18893 10.1074 3.35604C9.55141 4.30626 9.23245 5.41145 9.23242 6.59041C9.23269 8.74899 10.3013 10.6576 11.9395 11.8248C11.0309 12.4097 10.3264 13.2698 9.97461 14.2974C9.82689 14.2834 9.67748 14.274 9.52637 14.274H9.52539C7.7612 14.2742 6.19442 15.261 5.45312 16.7271C3.94096 15.2654 3.00013 13.2208 3 10.9566C3.00016 6.9186 5.98895 3.57737 9.88379 3.00252ZM18.6523 12.3101C18.8249 12.2215 19.0331 12.3609 18.9951 12.5504C18.9618 12.7154 18.9212 12.8784 18.8779 13.0396C18.7225 12.8294 18.55 12.6318 18.3623 12.4488C18.4601 12.4045 18.5572 12.3591 18.6523 12.3101Z" fill="#FDFEFE"/>
</svg>
