<svg width="24" height="24" viewBox="0 0 24 24" fill="none" xmlns="http://www.w3.org/2000/svg">
<g filter="url(#filter0_i_11851_2548)">
<path d="M10.7578 11C12.4662 11.0002 13.9254 11.9993 14.5117 13.4092V13.4072C14.5162 13.4179 14.5201 13.4288 14.5244 13.4395C14.535 13.4656 14.5447 13.4921 14.5547 13.5186C14.5676 13.5525 14.5799 13.5867 14.5918 13.6211C14.6011 13.648 14.6105 13.6749 14.6191 13.7021C14.6268 13.7261 14.6335 13.7503 14.6406 13.7744C14.6505 13.8078 14.6601 13.8413 14.6689 13.875C14.6772 13.9064 14.6849 13.938 14.6924 13.9697C14.6982 13.9948 14.7046 14.0197 14.71 14.0449C14.7537 14.251 14.7787 14.463 14.7852 14.6797C14.7862 14.7151 14.7881 14.7505 14.7881 14.7861C14.7881 14.9772 14.7732 15.1651 14.7441 15.3486L14.7305 15.4443C14.7282 15.4679 14.7285 15.4845 14.7324 15.4971C14.7442 15.5338 14.7664 15.557 14.8037 15.5713C14.8164 15.576 14.8336 15.5783 14.8584 15.5781L14.9609 15.5732C15.0238 15.5692 15.0874 15.5664 15.1514 15.5664C15.2496 15.5664 15.3467 15.5708 15.4424 15.5801C15.4551 15.5813 15.4678 15.5836 15.4805 15.585H15.4795C16.8981 15.7402 18 16.8887 18 18.2832C18 19.7288 16.8158 20.9107 15.3223 20.9951L15.1768 21H5.23535L5.22852 20.9941L5.22266 20.9883C3.47396 20.8462 2.08908 19.4863 2.00391 17.8018L2 17.6377C2 15.7804 3.57906 14.2745 5.52637 14.2744C5.86903 14.2745 6.20044 14.3212 6.51367 14.4082C6.58836 14.429 6.62633 14.4392 6.65234 14.4355C6.68021 14.4316 6.70196 14.421 6.71973 14.4033L6.73633 14.3838C6.7505 14.3626 6.75559 14.3251 6.7666 14.252C7.04312 12.4142 8.72524 11.0001 10.7578 11ZM17.8291 11.8281C18.0198 11.6374 18.3288 11.6374 18.5195 11.8281L20.0547 13.3623C20.2454 13.553 20.2454 13.863 20.0547 14.0537C19.8641 14.2442 19.555 14.244 19.3643 14.0537L17.8291 12.5186C17.6384 12.3279 17.6385 12.0189 17.8291 11.8281ZM15 6.10547C16.5984 6.10547 17.8945 7.40162 17.8945 9C17.8943 10.5982 16.5982 11.8936 15 11.8936C14.9174 11.8936 14.8358 11.8876 14.7549 11.8809C14.1564 11.1383 13.3368 10.5715 12.3994 10.2627C12.2136 9.88078 12.1065 9.45328 12.1064 9C12.1064 7.40165 13.4017 6.10551 15 6.10547ZM10.6592 8.51172C10.9287 8.51191 11.1474 8.73041 11.1475 9C11.1475 9.26961 10.9287 9.48809 10.6592 9.48828H8.48828C8.21856 9.48828 8 9.26973 8 9C8.00002 8.73029 8.21857 8.51172 8.48828 8.51172H10.6592ZM21.5117 8.51172C21.7814 8.51172 22 8.73027 22 9C22 9.26971 21.7814 9.48828 21.5117 9.48828H19.3408C19.0713 9.48809 18.8526 9.26959 18.8525 9C18.8525 8.73039 19.0713 8.51191 19.3408 8.51172H21.5117ZM9.94531 3.94629C10.1359 3.75579 10.445 3.75599 10.6357 3.94629L12.1709 5.48145C12.3616 5.67214 12.3615 5.98114 12.1709 6.17188C11.9802 6.3626 11.6712 6.3626 11.4805 6.17188L9.94531 4.6377C9.75459 4.44697 9.75459 4.13701 9.94531 3.94629ZM19.3643 3.94629C19.555 3.75556 19.864 3.75556 20.0547 3.94629C20.2451 4.13704 20.2453 4.44611 20.0547 4.63672L18.5195 6.1709C18.3288 6.36162 18.0198 6.36162 17.8291 6.1709C17.6385 5.98016 17.6384 5.67115 17.8291 5.48047L19.3643 3.94629ZM15 2C15.2697 2 15.4883 2.21856 15.4883 2.48828V4.65918C15.4881 4.92874 15.2696 5.14746 15 5.14746C14.7306 5.14722 14.5129 4.92859 14.5127 4.65918V2.48828C14.5127 2.2187 14.7305 2.00024 15 2Z" fill="#FDFEFE"/>
</g>
<defs>
<filter id="filter0_i_11851_2548" x="1.85484" y="2" width="20.1452" height="19.1452" filterUnits="userSpaceOnUse" color-interpolation-filters="sRGB">
<feFlood flood-opacity="0" result="BackgroundImageFix"/>
<feBlend mode="normal" in="SourceGraphic" in2="BackgroundImageFix" result="shape"/>
<feColorMatrix in="SourceAlpha" type="matrix" values="0 0 0 0 0 0 0 0 0 0 0 0 0 0 0 0 0 0 127 0" result="hardAlpha"/>
<feOffset dx="-0.145161" dy="0.145161"/>
<feGaussianBlur stdDeviation="0.145161"/>
<feComposite in2="hardAlpha" operator="arithmetic" k2="-1" k3="1"/>
<feColorMatrix type="matrix" values="0 0 0 0 1 0 0 0 0 1 0 0 0 0 1 0 0 0 0.25 0"/>
<feBlend mode="normal" in2="shape" result="effect1_innerShadow_11851_2548"/>
</filter>
</defs>
</svg>
