<svg width="24" height="24" viewBox="0 0 24 24" fill="none" xmlns="http://www.w3.org/2000/svg">
<path d="M12 2C16 2 17.9997 3.33366 19.333 4.66699C20.6663 6.00033 22 8 22 12C22 16 20.6663 17.9997 19.333 19.333C17.9997 20.6663 16 22 12 22C8.25 22 6.25781 20.8281 4.9248 19.583L4.66699 19.333C3.33366 17.9997 2 16 2 12C2 8.25 3.17188 6.25781 4.41699 4.9248L4.66699 4.66699C6.00033 3.33366 8 2 12 2ZM12 3.5C8.42383 3.5 6.79851 4.65657 5.72754 5.72754C4.65657 6.79851 3.5 8.42383 3.5 12C3.5 15.5762 4.65657 17.2015 5.72754 18.2725C6.79851 19.3434 8.42383 20.5 12 20.5C15.5762 20.5 17.2015 19.3434 18.2725 18.2725C19.3434 17.2015 20.5 15.5762 20.5 12C20.5 8.42383 19.3434 6.79851 18.2725 5.72754C17.2015 4.65657 15.5762 3.5 12 3.5ZM12 14.8975C12.6047 14.8975 13.0955 15.3676 13.0957 15.9482C13.0957 16.529 12.6049 17 12 17C11.3953 16.9998 10.9053 16.5289 10.9053 15.9482C10.9055 15.3678 11.3955 14.8977 12 14.8975ZM11.9951 7C13.8478 7.01194 14.9678 8.08434 15 9.86816C14.9693 11.4777 14.1714 12.4571 12.7314 12.7002V13.1602C12.7313 13.5477 12.4036 13.8623 12 13.8623C11.5966 13.8621 11.2687 13.5475 11.2686 13.1602V12.0596C11.2686 11.6733 11.5938 11.3595 11.9961 11.3574C13.0851 11.3511 13.5174 10.9335 13.5371 9.86816C13.5188 8.85757 13.0571 8.4123 11.9951 8.40527C10.9288 8.41164 10.4826 8.84368 10.4629 9.89355C10.4555 10.2818 10.0945 10.5793 9.71875 10.583C9.315 10.576 8.99269 10.2558 9 9.86816C9.03365 8.05701 10.1257 7.01201 11.9951 7Z" fill="#F2F4F7"/>
</svg>
