<svg width="24" height="24" viewBox="0 0 24 24" fill="none" xmlns="http://www.w3.org/2000/svg">
<path d="M3.99625 6.57249C4.10502 6.57249 4.1934 6.65986 4.19356 6.76711V7.10604C4.19382 7.64273 4.63499 8.07819 5.17917 8.07819H18.8208C19.365 8.07819 19.8062 7.64273 19.8064 7.10604V6.76711C19.8066 6.65986 19.895 6.57249 20.0038 6.57249H21.5803C21.6891 6.57249 21.7775 6.65986 21.7777 6.76711V7.10604C21.7774 8.71654 20.4537 10.0225 18.8208 10.0225H18.4936V11.9241H21.8027C21.9114 11.9241 21.9998 12.0105 22 12.1178V13.6738C21.9998 13.781 21.9114 13.8684 21.8027 13.8684H18.4936V16.1858L18.4878 16.4194H18.8208C20.4537 16.4194 21.7774 17.7253 21.7777 19.3358V20.5387C21.7775 20.6459 21.6891 20.7333 21.5803 20.7333H20.0038C19.895 20.7333 19.8066 20.6459 19.8064 20.5387V19.3358C19.8062 18.7991 19.365 18.3637 18.8208 18.3637H18.1057C18.0719 18.4557 18.0369 18.5474 17.9988 18.638C17.6724 19.4153 17.1938 20.1214 16.5907 20.7162C15.9876 21.3111 15.2718 21.7832 14.4838 22.1052C14.0405 22.2862 13.5789 22.4169 13.1083 22.4972C12.9906 22.5172 12.885 22.4262 12.885 22.3083V11.4143C12.885 11.307 12.7974 11.2198 12.6887 11.2197H11.3055C11.1967 11.2197 11.1083 11.3069 11.1082 11.4143V22.3083C11.1082 22.4262 11.0026 22.5172 10.8849 22.4972C10.415 22.4169 9.95407 22.286 9.51143 22.1052C8.72343 21.7832 8.00762 21.3111 7.40449 20.7162C6.80139 20.1214 6.32279 19.4153 5.99634 18.638C5.95829 18.5474 5.92325 18.4557 5.8895 18.3637H5.17917C4.635 18.3637 4.19382 18.7991 4.19356 19.3358V20.5387C4.1934 20.6459 4.10502 20.7333 3.99625 20.7333H2.41965C2.31088 20.7333 2.2225 20.6459 2.22234 20.5387V19.3358C2.2226 17.7253 3.54632 16.4194 5.17917 16.4194H5.50739L5.50161 16.1858V13.8684H2.19731C2.08868 13.8683 2.00016 13.7809 2 13.6738V12.1178C2.00016 12.0106 2.08868 11.9242 2.19731 11.9241H5.50161V10.0225H5.17917C3.54632 10.0225 2.2226 8.71654 2.22234 7.10604V6.76711C2.2225 6.65986 2.31088 6.57249 2.41965 6.57249H3.99625Z" fill="#FDFEFE"/>
<path d="M11.9976 1.5C12.7268 1.5 13.4492 1.64154 14.1228 1.91677C14.7964 2.192 15.4081 2.59595 15.9237 3.10444C16.4392 3.61297 16.8488 4.2163 17.1278 4.88071C17.3816 5.48524 17.523 6.12942 17.5465 6.7823C17.5503 6.8896 17.4618 6.9769 17.353 6.97692H6.64219C6.53334 6.9769 6.44486 6.8896 6.44872 6.7823C6.47223 6.12942 6.61354 5.48524 6.86741 4.88071C7.14643 4.2163 7.55598 3.61297 8.07151 3.10444C8.58704 2.59595 9.19882 2.192 9.87237 1.91677C10.546 1.64154 11.2684 1.5 11.9976 1.5Z" fill="#FDFEFE"/>
</svg>
