<svg width="24" height="24" viewBox="0 0 24 24" fill="none" xmlns="http://www.w3.org/2000/svg">
<g filter="url(#filter0_i_11851_2550)">
<path d="M11.999 17.3252C12.3718 17.3252 12.6738 17.6272 12.6738 18V21C12.6738 21.3728 12.3718 21.6748 11.999 21.6748C11.6262 21.6748 11.3242 21.3728 11.3242 21V18C11.3242 17.6272 11.6262 17.3252 11.999 17.3252ZM7.13379 15.9111C7.39739 15.6475 7.82429 15.6475 8.08789 15.9111C8.35149 16.1747 8.35149 16.6016 8.08789 16.8652L5.9668 18.9863C5.70319 19.2499 5.2763 19.2499 5.0127 18.9863C4.74909 18.7227 4.74909 18.2958 5.0127 18.0322L7.13379 15.9111ZM15.9102 15.9111C16.1738 15.6475 16.6007 15.6475 16.8643 15.9111L18.9854 18.0322C19.249 18.2958 19.249 18.7227 18.9854 18.9863C18.7217 19.2499 18.2949 19.2499 18.0312 18.9863L15.9102 16.8652C15.6466 16.6016 15.6466 16.1747 15.9102 15.9111ZM11.999 8C14.2082 8 15.999 9.79086 15.999 12C15.999 14.2091 14.2082 16 11.999 16C9.78988 16 7.99902 14.2091 7.99902 12C7.99902 9.79086 9.78988 8 11.999 8ZM5.99902 11.3252C6.37182 11.3252 6.67383 11.6272 6.67383 12C6.67383 12.3728 6.37182 12.6748 5.99902 12.6748H2.99902C2.62623 12.6748 2.32422 12.3728 2.32422 12C2.32422 11.6272 2.62623 11.3252 2.99902 11.3252H5.99902ZM20.999 11.3252C21.3718 11.3252 21.6738 11.6272 21.6738 12C21.6738 12.3728 21.3718 12.6748 20.999 12.6748H17.999C17.6262 12.6748 17.3242 12.3728 17.3242 12C17.3242 11.6272 17.6262 11.3252 17.999 11.3252H20.999ZM5.0127 5.01367C5.2763 4.75007 5.70417 4.75007 5.96777 5.01367L8.08887 7.13477C8.35237 7.39829 8.35222 7.82525 8.08887 8.08887C7.82527 8.35247 7.39837 8.35245 7.13477 8.08887L5.0127 5.96777C4.74942 5.70423 4.74942 5.27721 5.0127 5.01367ZM18.0312 5.01367C18.2949 4.75007 18.7217 4.75007 18.9854 5.01367C19.249 5.27728 19.249 5.70417 18.9854 5.96777L16.8643 8.08887C16.6007 8.35247 16.1738 8.35247 15.9102 8.08887C15.6466 7.82526 15.6466 7.39837 15.9102 7.13477L18.0312 5.01367ZM11.999 2.3252C12.3718 2.3252 12.6738 2.62721 12.6738 3V6C12.6738 6.37279 12.3718 6.6748 11.999 6.6748C11.6262 6.6748 11.3242 6.37279 11.3242 6V3C11.3242 2.62721 11.6262 2.3252 11.999 2.3252Z" fill="#FDFEFE"/>
</g>
<defs>
<filter id="filter0_i_11851_2550" x="2.17906" y="2.3252" width="19.4948" height="19.4948" filterUnits="userSpaceOnUse" color-interpolation-filters="sRGB">
<feFlood flood-opacity="0" result="BackgroundImageFix"/>
<feBlend mode="normal" in="SourceGraphic" in2="BackgroundImageFix" result="shape"/>
<feColorMatrix in="SourceAlpha" type="matrix" values="0 0 0 0 0 0 0 0 0 0 0 0 0 0 0 0 0 0 127 0" result="hardAlpha"/>
<feOffset dx="-0.145161" dy="0.145161"/>
<feGaussianBlur stdDeviation="0.145161"/>
<feComposite in2="hardAlpha" operator="arithmetic" k2="-1" k3="1"/>
<feColorMatrix type="matrix" values="0 0 0 0 1 0 0 0 0 1 0 0 0 0 1 0 0 0 0.25 0"/>
<feBlend mode="normal" in2="shape" result="effect1_innerShadow_11851_2550"/>
</filter>
</defs>
</svg>
