<svg width="56" height="56" viewBox="0 0 56 56" fill="none" xmlns="http://www.w3.org/2000/svg">
<path d="M27.999 28C31.001 28 33.8802 29.1928 36.0029 31.3154C38.1256 33.4381 39.3183 36.3174 39.3184 39.3193H27.999C24.997 39.3193 22.1179 38.1267 19.9951 36.0039C17.8724 33.8812 16.6797 31.002 16.6797 28H27.999Z" fill="#DEECFD"/>
<path d="M27.999 28C24.9971 28 22.1179 26.8072 19.9951 24.6846C17.8724 22.5619 16.6797 19.6826 16.6797 16.6807L27.999 16.6807C31.001 16.6807 33.8802 17.8733 36.0029 19.9961C38.1257 22.1188 39.3184 24.998 39.3184 28L27.999 28Z" fill="#DEECFD"/>
<g filter="url(#filter0_d_11851_2575)">
<path d="M39.3184 39.3193L38.7334 39.3125C26.5009 39.0024 16.6799 28.9878 16.6797 16.6807L39.3184 39.3193Z" fill="#F9FAFB"/>
</g>
<g filter="url(#filter1_d_11851_2575)">
<path d="M16.6797 16.6807L17.2646 16.6875C29.4971 16.9976 39.3182 27.0122 39.3184 39.3193L16.6797 16.6807Z" fill="#FDFEFE"/>
</g>
<defs>
<filter id="filter0_d_11851_2575" x="0.679688" y="0.680664" width="54.6387" height="54.6387" filterUnits="userSpaceOnUse" color-interpolation-filters="sRGB">
<feFlood flood-opacity="0" result="BackgroundImageFix"/>
<feColorMatrix in="SourceAlpha" type="matrix" values="0 0 0 0 0 0 0 0 0 0 0 0 0 0 0 0 0 0 127 0" result="hardAlpha"/>
<feOffset/>
<feGaussianBlur stdDeviation="8"/>
<feComposite in2="hardAlpha" operator="out"/>
<feColorMatrix type="matrix" values="0 0 0 0 0 0 0 0 0 0 0 0 0 0 0 0 0 0 0.2 0"/>
<feBlend mode="normal" in2="BackgroundImageFix" result="effect1_dropShadow_11851_2575"/>
<feBlend mode="normal" in="SourceGraphic" in2="effect1_dropShadow_11851_2575" result="shape"/>
</filter>
<filter id="filter1_d_11851_2575" x="0.679688" y="0.680664" width="54.6387" height="54.6387" filterUnits="userSpaceOnUse" color-interpolation-filters="sRGB">
<feFlood flood-opacity="0" result="BackgroundImageFix"/>
<feColorMatrix in="SourceAlpha" type="matrix" values="0 0 0 0 0 0 0 0 0 0 0 0 0 0 0 0 0 0 127 0" result="hardAlpha"/>
<feOffset/>
<feGaussianBlur stdDeviation="8"/>
<feComposite in2="hardAlpha" operator="out"/>
<feColorMatrix type="matrix" values="0 0 0 0 0 0 0 0 0 0 0 0 0 0 0 0 0 0 0.2 0"/>
<feBlend mode="normal" in2="BackgroundImageFix" result="effect1_dropShadow_11851_2575"/>
<feBlend mode="normal" in="SourceGraphic" in2="effect1_dropShadow_11851_2575" result="shape"/>
</filter>
</defs>
</svg>
