<svg width="70" height="70" viewBox="0 0 70 70" fill="none" xmlns="http://www.w3.org/2000/svg">
<rect width="70" height="70" rx="35" fill="url(#paint0_linear_848_209)"/>
<path d="M34.9984 35C40.0016 35 44.8003 36.988 48.3382 40.5257C51.8761 44.0636 53.8639 48.8623 53.8639 53.8656H34.9984C29.995 53.8656 25.1964 51.8778 21.6585 48.3398C18.1206 44.8019 16.1328 40.0034 16.1328 35H34.9984Z" fill="#DEECFD"/>
<path d="M34.9984 35.0001C29.9951 35.0001 25.1964 33.0121 21.6585 29.4744C18.1207 25.9365 16.1329 21.1378 16.1328 16.1345L34.9984 16.1345C40.0017 16.1345 44.8003 18.1223 48.3382 21.6602C51.8761 25.1982 53.8639 29.9967 53.8639 35.0001L34.9984 35.0001Z" fill="#DEECFD"/>
<g filter="url(#filter0_d_848_209)">
<path d="M53.8639 53.8656L52.889 53.8542C32.5015 53.3375 16.1331 36.6465 16.1328 16.1345L53.8639 53.8656Z" fill="#F9FAFB"/>
</g>
<g filter="url(#filter1_d_848_209)">
<path d="M16.1328 16.1345L17.1077 16.1459C37.4952 16.6627 53.8636 33.3537 53.8639 53.8656L16.1328 16.1345Z" fill="#FDFEFE"/>
</g>
<defs>
<filter id="filter0_d_848_209" x="0.132812" y="0.134521" width="69.7311" height="69.7312" filterUnits="userSpaceOnUse" color-interpolation-filters="sRGB">
<feFlood flood-opacity="0" result="BackgroundImageFix"/>
<feColorMatrix in="SourceAlpha" type="matrix" values="0 0 0 0 0 0 0 0 0 0 0 0 0 0 0 0 0 0 127 0" result="hardAlpha"/>
<feOffset/>
<feGaussianBlur stdDeviation="8"/>
<feComposite in2="hardAlpha" operator="out"/>
<feColorMatrix type="matrix" values="0 0 0 0 0 0 0 0 0 0 0 0 0 0 0 0 0 0 0.2 0"/>
<feBlend mode="normal" in2="BackgroundImageFix" result="effect1_dropShadow_848_209"/>
<feBlend mode="normal" in="SourceGraphic" in2="effect1_dropShadow_848_209" result="shape"/>
</filter>
<filter id="filter1_d_848_209" x="0.132812" y="0.134521" width="69.7311" height="69.7312" filterUnits="userSpaceOnUse" color-interpolation-filters="sRGB">
<feFlood flood-opacity="0" result="BackgroundImageFix"/>
<feColorMatrix in="SourceAlpha" type="matrix" values="0 0 0 0 0 0 0 0 0 0 0 0 0 0 0 0 0 0 127 0" result="hardAlpha"/>
<feOffset/>
<feGaussianBlur stdDeviation="8"/>
<feComposite in2="hardAlpha" operator="out"/>
<feColorMatrix type="matrix" values="0 0 0 0 0 0 0 0 0 0 0 0 0 0 0 0 0 0 0.2 0"/>
<feBlend mode="normal" in2="BackgroundImageFix" result="effect1_dropShadow_848_209"/>
<feBlend mode="normal" in="SourceGraphic" in2="effect1_dropShadow_848_209" result="shape"/>
</filter>
<linearGradient id="paint0_linear_848_209" x1="0.78993" y1="69.1469" x2="84.3108" y2="34.8423" gradientUnits="userSpaceOnUse">
<stop stop-color="#B9E8FF"/>
<stop offset="1" stop-color="#1573ED"/>
</linearGradient>
</defs>
</svg>
