<svg width="28" height="28" viewBox="0 0 28 28" fill="none" xmlns="http://www.w3.org/2000/svg">
<path d="M12.5513 14V12.6H13.9558V15.4L13.8118 15.3932C13.1511 15.3261 12.6255 14.8022 12.5582 14.1436L12.5513 14ZM15.3602 14V15.4H13.9558V14H15.3602ZM19.5735 14V15.4H16.7646V14H19.5735ZM23.7867 14V15.4H20.9779V14H23.7867ZM26.5956 14V15.4H25.1912V14H26.5956ZM28 14C28 14.7247 27.4476 15.3213 26.7396 15.3932L26.5956 15.4V12.6H28V14ZM13.9558 8.4V11.2H12.5513V8.4H13.9558ZM28 8.4V11.2H26.5956V8.4H28ZM13.9558 4.2V7H12.5513V4.2H13.9558ZM28 4.2V7H26.5956V4.2H28ZM12.5513 1.4C12.5513 0.626801 13.1801 2.25489e-08 13.9558 0H15.3602V1.4H13.9558V2.8H12.5513V1.4ZM28 2.8H26.5956V1.4H25.1912V0H26.5956C27.3712 0 28 0.626801 28 1.4V2.8ZM19.5735 0V1.4H16.7646V0H19.5735ZM23.7867 0V1.4H20.9779V0H23.7867Z" fill="#82B9FB"/>
<path d="M14.0442 9.8C14.8199 9.8 15.4487 10.4268 15.4487 11.2V16.9066L10.3137 15.2168C9.1064 14.82 7.95862 15.9539 8.36071 17.1459L11.0283 25.0523H1.40442C0.628782 25.0523 0 24.4255 0 23.6523V11.2C0 10.4268 0.628782 9.8 1.40442 9.8H14.0442Z" fill="#82B9FB"/>
<path d="M20.6881 20.1947L10.5599 16.8292C10.1275 16.6856 9.71618 17.0956 9.8603 17.5266L13.2364 27.623C13.3922 28.0889 14.0354 28.1345 14.2558 27.6952L16.3416 23.5367C16.3951 23.43 16.4819 23.3435 16.5889 23.2901L20.7606 21.2109C21.2013 20.9912 21.1556 20.35 20.6881 20.1947Z" fill="#82B9FB"/>
<path d="M20.9776 10.0502C20.9776 10.4368 20.6632 10.7502 20.2754 10.7502C19.8876 10.7502 19.5732 10.4368 19.5732 10.0502V5.3498C19.5732 4.9632 19.8876 4.6498 20.2754 4.6498C20.6632 4.6498 20.9776 4.9632 20.9776 5.3498V10.0502Z" fill="#82B9FB"/>
<path d="M17.9182 8.49023C17.5303 8.49023 17.2159 8.17683 17.2159 7.79023C17.2159 7.40363 17.5303 7.09023 17.9182 7.09023L22.6334 7.09023C23.0212 7.09023 23.3356 7.40363 23.3356 7.79023C23.3356 8.17683 23.0212 8.49023 22.6334 8.49023L17.9182 8.49023Z" fill="#82B9FB"/>
</svg>
