<svg width="54" height="54" viewBox="0 0 54 54" fill="none" xmlns="http://www.w3.org/2000/svg">
<g clip-path="url(#clip0_12079_3027)">
<path d="M31.615 1.74221C31.3876 0.895004 30.4893 0.359781 29.6084 0.546495C28.7277 0.733363 28.1981 1.5717 28.4254 2.41897C28.9083 4.21996 29.6111 8.67229 29.8066 11.2407C29.8726 12.1078 30.6619 12.7848 31.5693 12.7527C32.4766 12.7206 33.1589 11.9914 33.0929 11.1243C32.8875 8.42669 32.1608 3.77719 31.615 1.74221Z" fill="#72CB19"/>
<path d="M26.2604 10.4747C27.3654 7.93558 25.8381 4.69613 23.1571 3.89284C19.5355 2.8077 15.6773 5.91083 13.8262 12.1734C19.875 14.814 24.7677 13.9048 26.2604 10.4747Z" fill="#72CB19"/>
<path d="M25.0724 41.5045C26.7309 41.6431 27.9933 43.1 27.4907 44.6648C27.1724 45.6555 26.7372 46.6094 26.1915 47.5063C25.1268 49.2564 23.67 50.743 21.9328 51.8522C20.1956 52.9614 18.224 53.6638 16.169 53.9057C14.114 54.1475 12.0301 53.9223 10.077 53.2474C8.12382 52.5725 6.35323 51.4657 4.90079 50.0119C3.44835 48.558 2.3526 46.7956 1.69745 44.8597C1.04231 42.9238 0.84515 40.8657 1.12108 38.8431C1.26249 37.8064 1.52625 36.7932 1.90469 35.8233C2.50243 34.2915 4.41089 33.9303 5.79437 34.8429L12.3499 39.167C12.7324 39.4193 12.8116 39.936 12.7502 40.3858C12.713 40.6584 12.7396 40.9358 12.8279 41.1968C12.9162 41.4577 13.0639 41.6953 13.2597 41.8912C13.4555 42.0872 13.6941 42.2364 13.9574 42.3273C14.2206 42.4183 14.5015 42.4487 14.7785 42.4161C15.0555 42.3835 15.3213 42.2888 15.5554 42.1393C15.7896 41.9898 15.9859 41.7894 16.1295 41.5535C16.3662 41.1644 16.7551 40.8094 17.2137 40.8477L25.0724 41.5045Z" fill="#72CB19"/>
<path d="M31.8857 5.45834C35.7421 5.45355 42.7419 7.98406 44.584 17.9154C44.9367 19.817 45.8536 21.5935 47.0605 23.1048C51.0081 28.0479 54.9207 37.8336 48.8809 45.7747C44.1563 51.9864 35.9869 53.3449 32.2158 53.4906L31.5225 53.5052C30.2243 53.5052 28.0912 53.3387 25.6709 52.7542C26.8825 51.6752 27.9315 50.4242 28.7764 49.0355C29.4431 47.9395 29.9744 46.7734 30.3633 45.5628C31.5933 41.7335 28.4061 38.8008 25.3271 38.5433L17.4678 37.8871L17.2598 37.8744C16.5309 37.8495 15.9104 38.0223 15.3936 38.2835C15.1327 37.7125 14.7087 37.1474 14.0254 36.6966L11.1289 34.7855C11.5771 30.1565 13.7756 25.8719 15.9854 23.1048C17.1922 21.5936 18.1082 19.8169 18.4609 17.9154C18.5456 17.4592 18.6415 17.0186 18.7471 16.5931C19.9481 16.7185 21.1081 16.7036 22.2061 16.5384C25.1729 16.0919 27.7899 14.4966 29.0303 11.6468C29.8753 9.70466 29.8022 7.55706 29.0381 5.68392C29.9561 5.4948 30.8053 5.43407 31.5225 5.46615L31.8857 5.45834ZM12.3496 39.1673L12.418 39.2181C12.7413 39.4844 12.8074 39.9646 12.75 40.3861C12.7129 40.6586 12.7389 40.9368 12.8271 41.1976L12.9043 41.388C12.9923 41.5741 13.1129 41.7449 13.2598 41.8919L13.4141 42.0296C13.576 42.1585 13.7597 42.2593 13.957 42.3275L14.1572 42.3841C14.2926 42.4144 14.4315 42.4297 14.5703 42.429L14.7783 42.4163C14.986 42.3919 15.1876 42.3327 15.374 42.2415L15.5557 42.14C15.7898 41.9905 15.9864 41.7889 16.1299 41.5531C16.3667 41.1642 16.7556 40.8097 17.2139 40.848L25.0723 41.5052L25.2266 41.5218C26.8076 41.7348 27.9774 43.1489 27.4912 44.6644L27.3652 45.0355C27.0613 45.8937 26.6687 46.7226 26.1914 47.5072L25.9873 47.8324C25.0054 49.3464 23.7223 50.6485 22.2178 51.6634C19.3148 50.508 16.3659 48.6683 14.165 45.7747C12.3698 43.4144 11.4543 40.8909 11.1572 38.3802L12.3496 39.1673ZM26.1826 6.6556C26.7123 7.85639 26.7951 9.24714 26.2607 10.4749L26.1113 10.7894C25.0637 12.8015 22.756 13.8459 19.7109 13.6869C21.2904 9.99133 23.7564 7.82878 26.1826 6.6556Z" fill="#72CB19"/>
</g>
<defs>
<clipPath id="clip0_12079_3027">
<rect width="54" height="54" fill="white"/>
</clipPath>
</defs>
</svg>
