<svg width="54" height="54" viewBox="0 0 54 54" fill="none" xmlns="http://www.w3.org/2000/svg">
<path d="M18.0957 12.6537C20.1103 12.6799 21.8338 12.8133 23.9102 13.9907L24.6797 14.5678C24.8901 14.7573 25.1937 15.0505 25.5449 15.4448C26.2477 16.2337 27.1384 17.421 27.8818 18.9858C29.3624 22.1024 30.2769 26.7592 27.8721 32.8422C27.8041 33.0124 27.7771 33.192 27.791 33.3696C27.8052 33.5495 27.8607 33.7277 27.958 33.892C28.0555 34.0565 28.1931 34.2067 28.3652 34.3305C28.5375 34.4544 28.742 34.5494 28.9658 34.6078L29.0205 34.6225L29.0772 34.6323C29.2231 34.6571 29.3726 34.663 29.5205 34.6537C29.8327 34.6618 30.141 34.5986 30.4102 34.4721C30.7295 34.3218 30.9735 34.0937 31.1162 33.8295L31.1387 33.7875L31.1563 33.7436C33.8796 26.8451 32.7605 21.5275 31.2109 18.1801L31.0596 17.8618C30.737 17.1675 30.3598 16.4941 29.9317 15.8461C29.1027 14.5917 29.5875 12.7883 31.0879 12.6889C31.3401 12.6722 31.5932 12.6627 31.8467 12.6596C34.2606 12.6302 36.6426 13.2206 38.7666 14.3754C45.1152 17.8079 48.5627 25.5849 47.8467 33.4487H38.6211C35.8577 33.4489 33.6165 35.6892 33.6162 38.4526V51.9985C33.6162 52.1235 33.6231 52.2482 33.6328 52.3725C31.2749 53.3937 28.8368 53.9731 26.5059 53.9731H25.627C25.1901 53.9395 24.7513 53.9395 24.3145 53.9731C16.4037 54.4658 6.94553 47.9702 3.62989 39.7953C-0.286039 30.1313 3.09735 18.731 11.1748 14.3637C13.2996 13.2108 15.682 12.6224 18.0957 12.6537ZM52.1026 36.4291C53.2067 36.4291 54.114 37.3294 53.9883 38.4291C53.8031 40.0497 53.3927 41.6398 52.7676 43.1528C51.8868 45.2844 50.5962 47.2215 48.9688 48.853C47.3413 50.4845 45.4086 51.7786 43.2822 52.6616C41.773 53.2882 40.1868 53.6995 38.5703 53.8852C37.4734 54.0111 36.5752 53.1014 36.5752 51.9946V38.433C36.5752 37.3263 37.4703 36.4294 38.5742 36.4291H52.1026ZM7.63868 2.30609C22.7532 0.295792 26.6772 8.652 26.7842 13.8178C26.4744 13.4842 26.2015 13.2194 25.9893 13.0278C25.9409 12.9841 25.898 12.9488 25.8848 12.9379C25.8813 12.9351 25.877 12.9321 25.877 12.9321L25.8701 12.9262L25.8369 12.8989L25.5567 12.6723L25.5498 12.6752L25.5557 12.6713C25.5028 12.6284 25.155 12.3244 24.7324 12.1254C22.6599 11.1507 20.3986 10.6271 18.1006 10.5971C16.0216 10.5701 13.9633 10.9484 12.0371 11.7026C11.61 11.2001 11.2484 10.6805 10.9639 10.1577C9.71976 7.87165 8.17403 5.58598 6.98439 4.04925C6.49131 3.41233 6.84151 2.41225 7.63868 2.30609ZM36.5518 3.5014C36.9918 3.41271 37.4305 3.65583 37.5576 4.08734C38.1021 5.93896 38.1778 8.90455 36.5654 11.2719C35.0202 10.8114 33.4093 10.5832 31.7852 10.603C31.6403 10.6047 31.4951 10.609 31.3506 10.6147L30.918 10.6371C30.3212 10.6768 29.7954 10.8471 29.3457 11.1059C29.7341 7.91119 31.7054 4.47887 36.5518 3.5014Z" fill="#E692EB"/>
</svg>
