<svg width="54" height="54" viewBox="0 0 54 54" fill="none" xmlns="http://www.w3.org/2000/svg">
<g clip-path="url(#clip0_12079_3039)">
<path d="M31.5894 4.9834C32.2871 4.9834 32.9781 5.07375 33.6226 5.2489C34.2671 5.42406 34.8525 5.68094 35.3456 6.00456L37.9228 7.6958C38.2355 7.90085 38.4116 8.17903 38.4116 8.46896C38.4115 8.75885 38.2354 9.03711 37.9228 9.24213L35.3456 10.9334C34.8526 11.257 34.2671 11.5138 33.6226 11.689C32.978 11.8642 32.2872 11.9545 31.5894 11.9545C31.1527 11.9545 30.7186 11.9189 30.2969 11.8495C30.3133 12.009 30.3226 12.1698 30.3226 12.3309C30.3225 12.9033 30.2176 13.47 30.0145 13.9988C29.8112 14.5278 29.5132 15.0091 29.1377 15.4138L27.1756 17.5291C26.9377 17.7857 26.6145 17.9298 26.2781 17.9298C25.9418 17.9297 25.6193 17.7856 25.3815 17.5291L23.4185 15.4138C23.0429 15.0091 22.7449 14.5279 22.5416 13.9988C22.3384 13.4698 22.2335 12.9026 22.2335 12.3299C22.2336 12.1691 22.2419 12.0087 22.2582 11.8495C21.8368 11.9188 21.4031 11.9545 20.9667 11.9545C20.269 11.9545 19.578 11.8642 18.9336 11.689C18.2891 11.5139 17.7036 11.257 17.2105 10.9334L14.6333 9.24213C14.3207 9.03708 14.1445 8.7589 14.1445 8.46896C14.1446 8.17907 14.3207 7.90082 14.6333 7.6958L17.2105 6.00456C17.7036 5.6809 18.289 5.4241 18.9336 5.2489C19.5781 5.07371 20.269 4.98342 20.9667 4.9834C21.6643 4.9834 22.3553 5.07375 22.9998 5.2489C23.6444 5.42411 24.2307 5.68086 24.7238 6.00456L24.9045 6.13002C25.6161 6.64604 26.0725 7.28824 26.2228 7.972C26.2412 7.97173 26.2596 7.97103 26.2781 7.97103C26.2961 7.97103 26.3143 7.97174 26.3324 7.972C26.4949 7.23156 27.0177 6.54018 27.8333 6.00456C28.3263 5.68099 28.9119 5.42406 29.5563 5.2489C30.2008 5.07376 30.8918 4.98342 31.5894 4.9834Z" fill="#EF6D3D"/>
<path d="M24.4264 3.01505C24.3346 1.93076 25.19 1 26.2781 1C27.3663 1 28.2216 1.93077 28.1299 3.01505L27.3745 11.943C27.3263 12.5127 26.8498 12.9505 26.2781 12.9505C25.7064 12.9505 25.2299 12.5127 25.1817 11.943L24.4264 3.01505Z" fill="#EF6D3D"/>
<path d="M52.589 42.8233C54.7505 33.6825 47.9359 30.3218 42.7051 30.1382C41.5806 30.0987 40.6281 30.8558 40.2252 31.8906L33.2591 49.7825C32.8883 50.7349 33.0106 51.8518 33.8497 52.4495C38.5277 55.7819 49.8865 54.2522 52.589 42.8233Z" fill="#F06F33"/>
<path d="M41.2164 9.74886C46.016 11.2489 50.1312 15.0844 51.2711 22.7489C51.658 25.3502 51.6334 27.7473 51.2877 29.9373C48.87 28.1709 45.9525 27.367 43.4069 27.1844L42.8131 27.1522L42.5641 27.1493C40.1778 27.1694 38.3807 28.6949 37.5504 30.4539L37.3932 30.8211L31.1735 46.7967C29.4877 46.7231 27.9425 46.3563 26.6617 45.6903C26.4242 45.558 26.1373 45.5637 25.8961 45.6893C17.6498 49.9811 -1.56007 41.88 1.28479 22.7489C2.42476 15.0845 6.53989 11.2489 11.3395 9.74886C11.6739 10.651 12.3261 11.3189 12.9518 11.7293L15.5289 13.4207V13.4198C16.3221 13.9403 17.21 14.32 18.1266 14.5692C18.6186 14.7029 19.1241 14.7994 19.6344 14.8612C19.6574 14.9263 19.6799 14.9919 19.7047 15.0565C20.039 15.9262 20.5358 16.7359 21.1793 17.4295V17.4305L23.1422 19.5448C23.9224 20.3857 25.0433 20.9176 26.278 20.9178C27.5103 20.9178 28.6333 20.3883 29.4156 19.5448L31.3776 17.4295L31.611 17.1649C32.1417 16.5336 32.5585 15.8181 32.8512 15.0565C32.8759 14.9921 32.8976 14.9262 32.9205 14.8612C33.4312 14.7994 33.9368 14.703 34.4293 14.5692C35.3452 14.3202 36.2328 13.9402 37.026 13.4198L37.027 13.4207L39.6041 11.7293L39.7721 11.6131C40.3441 11.1976 40.9118 10.5704 41.2164 9.74886ZM42.7047 30.1395C45.3515 30.2324 48.403 31.1392 50.4928 33.1961C47.865 41.0247 40.8079 45.5585 34.5035 46.5848L40.2252 31.8905C40.6282 30.8561 41.5806 30.1002 42.7047 30.1395ZM29.9479 9.7596C32.463 9.08023 35.3167 8.77181 38.1071 9.09652C38.0521 9.14779 37.9909 9.19713 37.9225 9.24202L35.3453 10.9334C34.8523 11.257 34.2671 11.5141 33.6227 11.6893C32.9782 11.8645 32.2872 11.9549 31.5895 11.9549C31.153 11.9549 30.719 11.9188 30.2975 11.8494C30.3139 12.0088 30.3229 12.17 30.3229 12.3309C30.3228 12.9032 30.2174 13.4701 30.0143 13.9989C29.811 14.5278 29.5128 15.0092 29.1373 15.4139L27.1754 17.5291C26.9375 17.7857 26.6144 17.9305 26.278 17.9305C25.9418 17.9304 25.6193 17.7855 25.3815 17.5291L23.4186 15.4139C23.0431 15.0092 22.7449 14.5278 22.5416 13.9989C22.3385 13.47 22.234 12.9024 22.234 12.3299C22.234 12.1692 22.2421 12.0085 22.2584 11.8494C21.837 11.9188 21.4029 11.9549 20.9664 11.9549C20.2689 11.9549 19.5776 11.8644 18.9332 11.6893C18.2889 11.5141 17.7035 11.257 17.2106 10.9334L14.6334 9.24202C14.565 9.19711 14.5038 9.1478 14.4489 9.09652C17.2392 8.77179 20.093 9.08025 22.608 9.7596C24.9966 10.4047 27.5593 10.4047 29.9479 9.7596Z" fill="#F06F33"/>
</g>
<defs>
<clipPath id="clip0_12079_3039">
<rect width="54" height="54" fill="white"/>
</clipPath>
</defs>
</svg>
