<svg width="54" height="54" viewBox="0 0 54 54" fill="none" xmlns="http://www.w3.org/2000/svg">
<g clip-path="url(#clip0_12079_3020)">
<path d="M38.8918 25.9355C40.942 25.9332 43.0106 26.5367 44.8175 27.8062C44.9135 27.8765 45.0031 27.9565 45.0991 28.0268C46.1158 27.4449 47.0295 26.6383 47.741 25.6052C49.8736 22.5214 49.5992 18.4794 47.3275 15.7328C46.8767 15.1892 46.3573 14.6899 45.7546 14.2702C43.4373 12.6402 40.5659 12.4178 38.1192 13.4081C37.8665 14.8799 37.3131 16.3246 36.405 17.6296C36.3539 17.7026 36.2983 17.7697 36.2427 17.8369C38.25 20.058 39.1791 23.0174 38.8873 25.9297L38.8918 25.9355Z" fill="#AD65F5"/>
<path d="M24.0489 15.4871C26.6581 14.2049 29.7326 14.061 32.4948 15.1962C33.1925 15.4848 33.876 15.8458 34.5219 16.2974C35.322 15.143 35.7822 13.856 35.925 12.5504C35.9524 12.3315 35.9592 12.11 35.9654 11.8937C36.047 9.23573 34.847 6.59703 32.5303 4.96182C29.2686 2.66811 24.9138 3.15439 22.1978 5.91616C21.8733 6.24606 21.5669 6.5994 21.2972 6.9944C20.5805 8.02688 20.1489 9.16923 19.9561 10.3309C20.0579 10.3966 20.1611 10.4519 20.2571 10.5222C22.064 11.7917 23.3383 13.545 24.0438 15.4864L24.0489 15.4871Z" fill="#AD65F5"/>
<path d="M44.7091 30.7627C44.3484 30.3786 43.9417 30.0259 43.4937 29.7103C43.0934 29.4324 42.6821 29.2009 42.2565 28.9993C41.0184 28.4205 39.6849 28.1844 38.3792 28.2695C38.3462 28.366 38.3079 28.4618 38.2697 28.5576C38.0014 29.2757 37.6512 29.9782 37.2165 30.6437C37.1654 30.7167 37.1291 30.7969 37.078 30.8699C36.111 32.268 34.8645 33.3453 33.4752 34.0975C36.357 36.6612 37.5331 40.5781 36.718 44.2347C39.92 45.1233 43.4692 43.9536 45.486 41.0407C45.8061 40.5779 46.0708 40.0975 46.2852 39.6003C47.5677 36.6058 46.9473 33.108 44.715 30.7581L44.7091 30.7627Z" fill="#AD65F5"/>
<path d="M16.2538 42.7008C13.3472 43.5539 10.1031 43.126 7.43449 41.2455C4.8796 44.938 5.76922 50.0102 9.42091 52.5804C13.0726 55.1507 18.0992 54.2404 20.6541 50.5478C17.9802 48.6667 16.4645 45.7448 16.2544 42.6956L16.2538 42.7008Z" fill="#AD65F5"/>
<path d="M7.28218 37.9916C7.7073 38.4896 8.19509 38.9479 8.75396 39.3409C8.85066 39.406 8.94866 39.4606 9.04536 39.5257C11.3114 40.9798 14.0466 41.1587 16.3894 40.203C16.502 39.5554 16.6708 38.9201 16.9067 38.2932C17.175 37.5751 17.5253 36.8725 17.96 36.2071C18.0111 36.134 18.0473 36.0539 18.0984 35.9809C19.0014 34.6753 20.1523 33.6496 21.4357 32.9053C21.4424 32.7685 21.4388 32.6304 21.4351 32.4922C20.2553 31.3649 19.3824 30.006 18.844 28.5303C15.5703 30.1368 11.5657 29.9629 8.37098 27.7199C8.0822 27.5143 7.79989 27.2989 7.54018 27.0705C7.26739 27.3645 7.00362 27.6703 6.76689 28.0112C4.69193 31.0121 4.88837 34.9226 6.99295 37.6642C7.08311 37.7814 7.1849 37.8894 7.28087 38.002L7.28218 37.9916Z" fill="#AD65F5"/>
<path d="M31.2249 35.2763C31.1288 35.206 31.0205 35.15 30.9238 35.085C30.9238 35.085 30.9186 35.0843 30.9135 35.0837C30.1407 35.2674 29.3526 35.3644 28.5608 35.3657C27.0037 35.3663 25.4335 35.0106 23.9782 34.2828C23.8516 34.3305 23.7205 34.3723 23.5933 34.4252C22.1901 34.9957 20.925 35.97 19.9962 37.3147C19.5351 37.9822 19.1887 38.6958 18.9494 39.4334C18.7775 39.9678 18.6566 40.5138 18.5938 41.0565C18.5664 41.2754 18.5596 41.4969 18.5534 41.7132C18.4752 44.2604 19.5792 46.7865 21.7165 48.431C21.8074 48.5006 21.8924 48.5748 21.9885 48.6451C22.5473 49.0381 23.1438 49.3405 23.7487 49.5752C27.1211 50.861 31.0574 49.7399 33.2216 46.6125C33.4583 46.2716 33.6551 45.9151 33.8312 45.556C33.8946 45.4263 33.9626 45.3025 34.0209 45.1721C34.0228 45.1565 34.0306 45.1363 34.0377 45.1213C34.1861 44.7746 34.2989 44.4182 34.3911 44.0592C34.4606 43.7979 34.5139 43.5398 34.5576 43.2753C34.57 43.1763 34.5927 43.0785 34.6051 42.9795C34.6097 42.943 34.6143 42.9065 34.6189 42.8701C34.9422 39.9989 33.7343 37.0468 31.2242 35.2815L31.2249 35.2763Z" fill="#AD65F5"/>
<path d="M33.4691 18.4212C33.3783 18.3516 33.2932 18.2774 33.1971 18.2071C33.1004 18.142 33.0024 18.0874 32.9057 18.0223C32.4351 17.7198 31.9419 17.4726 31.4369 17.2769C29.1751 16.4163 26.6677 16.6366 24.6001 17.8226C24.651 18.2525 24.6807 18.685 24.6845 19.1143C24.6846 19.9085 24.5897 20.7066 24.4071 21.4937C24.1135 22.7486 23.5933 23.9698 22.8178 25.0955C22.4847 25.5779 22.111 26.0075 21.7187 26.4189C21.4414 26.707 21.1505 26.9776 20.8468 27.2254C21.3128 28.8192 22.2688 30.2679 23.6591 31.3475C23.7545 31.423 23.8492 31.5037 23.9504 31.5746C24.0516 31.6455 24.1593 31.7067 24.2611 31.7724C25.742 32.7151 27.4211 33.1216 29.0656 33.0101C29.7897 32.9633 30.5107 32.8155 31.1965 32.5732C31.4431 32.4877 31.6807 32.3904 31.9197 32.2827C33.1887 31.6954 34.3259 30.7792 35.1784 29.5414C35.3 29.366 35.4068 29.1835 35.5135 29.0011C35.5343 28.9613 35.5653 28.9228 35.586 28.8831C35.6391 28.7944 35.6824 28.6993 35.731 28.6048C35.8766 28.3213 36.0023 28.03 36.1125 27.7367C36.152 27.6305 36.1967 27.525 36.2317 27.4129C36.2998 27.2044 36.3582 26.9893 36.4063 26.773C36.4512 26.5828 36.485 26.3964 36.5195 26.2049C36.5423 26.0648 36.5703 25.9253 36.5879 25.7846C36.836 23.5551 36.1569 21.2782 34.6651 19.5453C34.3082 19.1299 33.91 18.7518 33.4653 18.4101L33.4691 18.4212Z" fill="#AD65F5"/>
<path d="M9.41418 25.5849C9.50957 25.6604 9.59979 25.7352 9.69583 25.8055C12.3265 27.6548 15.6666 27.6924 18.2871 26.1946C18.2871 26.1946 18.2871 26.1946 18.2929 26.19C18.9711 25.7986 19.5991 25.3056 20.1557 24.7136C20.2889 24.5715 20.4169 24.4287 20.541 24.2749C20.6716 24.1112 20.8074 23.9483 20.929 23.7729C21.0765 23.5585 21.2091 23.3369 21.3366 23.1146C21.3896 23.026 21.433 22.9308 21.4816 22.8363C21.6272 22.5528 21.7529 22.2615 21.8631 21.9683C22.0523 21.4626 22.1899 20.9505 22.2708 20.4312C22.3105 20.1979 22.3392 19.9686 22.3577 19.738C22.4196 18.9516 22.366 18.1667 22.2046 17.4052C22.1623 17.1988 22.1097 16.991 22.0513 16.7878C21.681 15.5184 21.0001 14.3425 20.0369 13.3693C19.7063 13.0367 19.3474 12.7217 18.9477 12.4386C18.4997 12.123 18.0342 11.8635 17.5525 11.6496C14.1044 10.1319 9.95576 11.2317 7.71457 14.4712C7.3045 15.0657 6.98922 15.6985 6.75588 16.3469C6.6593 16.6153 6.57239 16.8903 6.50678 17.1627C6.47626 17.2806 6.44575 17.3986 6.42039 17.5172C5.97614 19.722 6.46294 22.0278 7.76809 23.8697C8.22268 24.509 8.769 25.0858 9.41418 25.5849Z" fill="#AD65F5"/>
<path d="M35.9502 11.138C35.9654 11.3889 35.9726 11.6408 35.9648 11.8929C35.9587 12.1091 35.9513 12.3313 35.9238 12.5501C35.781 13.8556 35.3205 15.143 34.5205 16.2972C33.8748 15.8457 33.1917 15.4842 32.4941 15.1956C32.3485 15.1358 32.2019 15.0794 32.0547 15.0267C32.1725 14.5423 32.4703 14.1005 32.9238 13.8118C34.0946 13.0667 35.0973 12.1462 35.9502 11.138ZM39.6143 12.9651C39.0326 13.7267 38.3854 14.4627 37.6641 15.1507C37.8017 14.7575 37.9185 14.36 38.0088 13.9583L38.1182 13.4075C38.6026 13.2115 39.1041 13.0646 39.6143 12.9651ZM42.1973 0.00909236C43.2961 0.119084 44.0979 1.0997 43.9883 2.19855C43.7778 4.30324 42.9177 7.62055 41.0537 10.8138C40.0026 10.825 38.9588 11.0012 37.9629 11.3333C37.9377 10.4872 37.8071 9.64652 37.5762 8.83233C39.0933 6.25327 39.8348 3.53063 40.0078 1.80011C40.118 0.701343 41.0984 -0.100795 42.1973 0.00909236Z" fill="#AD65F5"/>
<path d="M43.3346 10.0137C43.2386 10.25 43.3199 10.5202 43.5301 10.6648C46.913 12.9906 51.7049 12.0031 53.8017 7.51914C53.9339 7.23638 53.8065 6.90255 53.5207 6.77703C49.1647 4.86388 44.8385 6.30988 43.3346 10.0137Z" fill="#AD65F5"/>
</g>
<defs>
<clipPath id="clip0_12079_3020">
<rect width="54" height="54" fill="white"/>
</clipPath>
</defs>
</svg>
