<svg width="54" height="54" viewBox="0 0 54 54" fill="none" xmlns="http://www.w3.org/2000/svg">
<g clip-path="url(#clip0_12079_3051)">
<path d="M39.2011 4.96723C39.8228 4.10799 40.9984 3.93418 41.8272 4.57873C42.6557 5.22342 42.8233 6.44261 42.2018 7.30202C40.8807 9.12881 38.1242 13.8851 36.7518 16.7314C36.2885 17.6924 35.1614 18.082 34.2347 17.6015C33.3081 17.121 32.9324 15.9522 33.3957 14.9912C34.8371 12.0017 37.7083 7.03134 39.2011 4.96723Z" fill="#FAD416"/>
<path fill-rule="evenodd" clip-rule="evenodd" d="M30.6328 1.18592C30.0759 1.08325 29.5529 1.0339 29.045 0.983758C28.6304 0.943962 28.2127 0.902574 27.8076 0.800696C27.1254 0.632547 26.4721 0.362661 25.8693 0C24.1461 3.27681 24.6272 6.47402 26.1644 8.43517C26.9935 9.49215 28.1336 10.2021 29.4398 10.4106C30.6131 10.5985 31.9715 10.3915 33.4193 9.59403C32.5395 7.78968 31.1012 6.06014 29.2285 5.11857C29.0407 5.02421 28.8979 4.85866 28.8314 4.65835C28.7649 4.45804 28.7803 4.23937 28.8741 4.05044C28.9679 3.86151 29.1324 3.71781 29.3316 3.65094C29.5307 3.58407 29.748 3.59951 29.9358 3.69387C31.9992 4.73175 33.5799 6.52655 34.6076 8.44074C35.1147 7.60502 35.2666 6.6332 35.1733 5.6773C35.0396 4.30195 34.4138 3.12638 33.8228 2.62972C32.7721 1.74864 31.6645 1.37694 30.632 1.18592H30.6328Z" fill="#FAD416"/>
<path d="M4.15381 34.4381C3.13554 37.5792 3.33427 40.9783 4.70962 43.893C6.09018 46.8184 8.54246 49.0165 11.526 50.003C14.5094 50.9893 17.7803 50.6833 20.6191 49.1531C23.4475 47.6283 25.616 45.0119 26.6519 41.8765L29.8663 42.9393C29.8075 43.1189 29.7452 43.2976 29.6805 43.4744L29.6901 43.4776C28.4282 47.333 25.6944 50.5274 22.0899 52.3569C18.5977 54.1291 14.5649 54.4804 10.8288 53.3475C10.7085 53.3112 10.5883 53.2733 10.4686 53.2338C10.3487 53.1941 10.2291 53.1527 10.1106 53.1101C6.43505 51.7924 3.39806 49.1036 1.63469 45.5938C-0.185504 41.9708 -0.499466 37.7689 0.762256 33.9133L0.772776 33.9168C0.825198 33.7359 0.879652 33.5546 0.938434 33.375L4.15381 34.4381Z" fill="#FAD416"/>
<path d="M13.5352 40.6707C14.1866 40.0527 15.2611 40.408 15.4203 41.2939L16.4619 47.1043C16.5763 47.7418 16.1361 48.3525 15.4916 48.359C14.392 48.3699 13.2884 48.1983 12.231 47.8488C11.1735 47.4991 10.1834 46.9785 9.30478 46.3135C8.7901 45.9237 8.79652 45.1696 9.2651 44.7248L13.5352 40.6707Z" fill="#FAD416"/>
<path d="M12.3099 37.1347C13.1852 37.4242 13.3645 38.5886 12.617 39.1303L8.00819 42.4706C7.50299 42.8365 6.7913 42.7244 6.4928 42.1751C5.99394 41.2566 5.65546 40.255 5.49546 39.2152C5.33552 38.1756 5.35695 37.1187 5.55641 36.0917C5.67576 35.4772 6.32157 35.1537 6.9133 35.3494L12.3099 37.1347Z" fill="#FAD416"/>
<path d="M23.9835 40.9943C24.5752 41.19 24.9032 41.8344 24.6363 42.4001C24.1902 43.3455 23.5833 44.2087 22.8405 44.95C22.0976 45.6912 21.2345 46.2956 20.2906 46.7371C19.7258 47.0012 19.086 46.6664 18.8957 46.0703L17.1598 40.6323C16.8786 39.7505 17.7113 38.9206 18.5866 39.21L23.9835 40.9943Z" fill="#FAD416"/>
<path fill-rule="evenodd" clip-rule="evenodd" d="M31.7884 11.5264C31.5008 12.068 31.2303 12.5876 30.9885 13.0714L30.6912 13.6759C29.54 16.0644 30.4371 19.0307 32.8572 20.2856C35.3331 21.569 38.2784 20.4865 39.4539 18.0486C40.0411 16.8307 40.8974 15.2469 41.7695 13.7182C49.032 17.021 53.9997 23.7107 53.9997 31.4263C53.9997 42.4184 43.9174 51.3291 31.4803 51.3291C30.4363 51.3291 29.4092 51.2639 28.403 51.1424C30.0591 49.3049 31.3342 47.1245 32.1199 44.7243L32.2881 44.2103L32.291 44.2024L32.9168 42.2888C33.0894 41.7609 32.8035 41.1926 32.2783 41.019L24.6773 38.5058C24.6725 38.5042 24.6665 38.5025 24.6616 38.5009L9.06459 33.3429C8.9964 32.7121 8.96094 32.0728 8.96094 31.4263C8.96101 20.4342 19.0433 11.5234 31.4803 11.5234C31.5832 11.5234 31.6858 11.5252 31.7884 11.5264ZM42.014 40.8538C41.1508 40.8541 40.4513 41.5578 40.4513 42.4254C40.4515 43.2929 41.1509 43.9958 42.014 43.996C42.8773 43.996 43.5774 43.2931 43.5776 42.4254C43.5776 41.5576 42.8774 40.8538 42.014 40.8538ZM38.8877 35.6162C38.0243 35.6162 37.3241 36.32 37.3241 37.1878C37.3243 38.0555 38.0244 38.7584 38.8877 38.7584C39.751 38.7584 40.4512 38.0554 40.4513 37.1878C40.4513 36.32 39.7511 35.6162 38.8877 35.6162ZM45.1412 34.5695C44.2779 34.5695 43.5777 35.2724 43.5776 36.1401C43.5776 37.0079 44.2778 37.7117 45.1412 37.7117C46.0044 37.7115 46.7038 37.0078 46.7038 36.1401C46.7037 35.2725 46.0044 34.5696 45.1412 34.5695ZM42.014 28.2841C41.1508 28.2843 40.4514 28.9871 40.4513 29.8547C40.4513 30.7224 41.1508 31.4261 42.014 31.4263C42.8774 31.4263 43.5776 30.7225 43.5776 29.8547C43.5775 28.987 42.8773 28.2841 42.014 28.2841ZM45.1412 21.9987C44.2779 21.9987 43.5777 22.7016 43.5776 23.5693C43.5776 24.4371 44.2778 25.1409 45.1412 25.1409C46.0044 25.1408 46.7038 24.437 46.7038 23.5693C46.7037 22.7017 46.0044 21.9989 45.1412 21.9987Z" fill="#FAD416"/>
</g>
<defs>
<clipPath id="clip0_12079_3051">
<rect width="54" height="54" fill="white"/>
</clipPath>
</defs>
</svg>
