<svg width="54" height="54" viewBox="0 0 54 54" fill="none" xmlns="http://www.w3.org/2000/svg">
<path d="M19.4424 7.75396C19.9202 6.93405 20.9407 6.64778 21.7569 7.08892L21.835 7.13385L22.0176 7.2481C22.9559 7.84774 24.2272 8.87215 25.3282 10.2022C26.3647 11.4545 27.3589 13.1136 27.6504 15.0528C28.2473 14.9431 28.8321 14.7911 29.3926 14.5919C29.8501 14.4292 30.3306 14.2784 30.8282 14.1465C33.1967 13.5191 35.9795 13.2971 38.7383 14.0362C42.2087 14.9664 45.6299 17.6118 47.4161 21.9903C48.2349 23.9979 48.7085 26.3691 48.6885 29.1045C46.133 26.8756 42.9762 25.4193 39.5782 24.962C35.4156 24.402 31.2146 25.3835 27.7266 27.6915C25.614 29.0896 25.4354 31.8444 26.7481 33.5928L39.6563 50.7852C38.2972 51.9909 36.9059 52.8108 35.5264 53.3194C33.1045 54.2118 30.7256 54.1506 28.6436 53.5704C26.6867 53.025 24.5671 52.9907 22.5899 53.4678L21.8028 53.6729C19.8173 54.1546 17.5849 54.1559 15.3145 53.3194C11.4979 51.9126 7.58326 48.1407 4.54302 40.3272C1.48864 32.4769 1.63872 26.3695 3.42485 21.9903C5.21112 17.6121 8.6313 14.9664 12.1016 14.0362C14.8606 13.2971 17.6442 13.519 20.0127 14.1465C20.5101 14.2784 20.9901 14.4293 21.4473 14.5919C22.2963 14.8937 23.1993 15.0903 24.1192 15.1866C23.891 14.2718 23.3698 13.3586 22.6641 12.5059C21.8766 11.5545 20.9647 10.8058 20.3116 10.3672L20.0489 10.1993L19.9737 10.1495C19.2052 9.62636 18.9648 8.57389 19.4424 7.75396ZM37.8907 27.7969C38.3212 27.8154 38.753 27.8533 39.1836 27.9112L39.5411 27.9639L39.8965 28.0264C39.9708 28.0403 40.0452 28.0554 40.1192 28.0704C40.1481 28.0762 40.1773 28.0819 40.2061 28.0879C40.3999 28.1285 40.5928 28.1733 40.7842 28.2217C40.801 28.226 40.8182 28.2301 40.835 28.2344C41.025 28.2833 41.214 28.3362 41.4014 28.3926C41.4244 28.3996 41.4478 28.4061 41.4707 28.4131C42.0713 28.5974 42.6582 28.8209 43.2276 29.0811C43.2343 29.0842 43.2414 29.0868 43.2481 29.0899C45.4293 30.0908 47.3569 31.6347 48.8389 33.6085C51.1909 36.7409 52.2289 40.7007 51.7247 44.6153C51.2712 48.1353 49.604 51.3607 47.044 53.7227C46.567 54.1627 45.8326 54.061 45.4415 53.5401L41.1397 47.8116L29.1211 31.8038C28.9991 31.6411 28.9243 31.4562 28.8956 31.2676C28.8898 31.23 28.8859 31.1921 28.8838 31.1544C28.8797 31.0784 28.883 31.0024 28.8936 30.9278C28.8988 30.8908 28.9053 30.8537 28.9141 30.8174C28.9675 30.5991 29.0862 30.3975 29.2676 30.2461C29.2977 30.2211 29.3298 30.197 29.3633 30.1749C30.2678 29.5763 31.2299 29.0857 32.2295 28.7081C32.4295 28.6325 32.6312 28.5606 32.834 28.4942C34.4572 27.9625 36.1689 27.7232 37.8907 27.7969ZM36.6661 0.00982168C36.8771 0.0354538 37.079 0.110585 37.2559 0.228572C37.4328 0.346584 37.5799 0.504427 37.6846 0.689509C37.7893 0.874528 37.8493 1.08166 37.8594 1.294C37.9348 2.28448 37.9906 3.82355 37.8135 5.41607C37.6382 7.00081 37.2263 8.69518 36.3252 9.95123C35.3918 11.3036 34.0587 11.9048 32.8194 12.1397C31.5887 12.372 30.4244 12.2498 29.7618 12.1368C29.5787 12.1077 29.4013 12.0495 29.2364 11.9649C30.226 9.31605 32.0831 6.40167 34.8301 3.87115C34.9369 3.77276 35.0008 3.63631 35.0069 3.49127C35.0129 3.34621 34.9606 3.2046 34.8624 3.09771C34.7639 2.99078 34.6267 2.92695 34.4815 2.92095C34.3363 2.91496 34.1949 2.96704 34.0879 3.06549C31.3954 5.54591 29.5063 8.39065 28.4141 11.0587C28.0889 10.4582 27.6819 9.55379 27.504 8.51178C27.2928 7.27592 27.3989 5.82502 28.3604 4.47174C29.2483 3.21845 30.7208 2.25697 32.1661 1.54791C33.6132 0.837925 35.0857 0.356338 36.0411 0.0811107C36.241 0.0089125 36.455 -0.0157824 36.6661 0.00982168Z" fill="#F65B75"/>
</svg>
